<mxfile host="Electron" modified="2024-05-05T05:12:52.119Z" agent="Mozilla/5.0 (Windows NT 10.0; Win64; x64) AppleWebKit/537.36 (KHTML, like Gecko) draw.io/23.1.5 Chrome/120.0.6099.109 Electron/28.1.0 Safari/537.36" etag="vYDexPpKyXEvzDGGfR4m" version="23.1.5" type="device">
  <diagram name="페이지-1" id="q5TG3v9uaxJK44XegPj-">
    <mxGraphModel dx="1167" dy="1859" grid="1" gridSize="10" guides="1" tooltips="1" connect="1" arrows="1" fold="1" page="1" pageScale="1" pageWidth="827" pageHeight="1169" math="0" shadow="0">
      <root>
        <mxCell id="0" />
        <mxCell id="1" parent="0" />
        <mxCell id="qfeyh0uUsn0Jp_XaAwNh-1" value="" style="shape=image;verticalLabelPosition=bottom;labelBackgroundColor=default;verticalAlign=top;aspect=fixed;imageAspect=0;image=data:image/png,iVBORw0KGgoAAAANSUhEUgAABDgAAAlgCAYAAABtGofVAAAgAElEQVR4nOzdeXxU9b3/8feZfbIHCFvYF1kFBEQUxbrh0rrgVlu9equ3ra329vZ2+9nb9na7Wn/dbm+1Xvvrqta2biBadxRQKoKIyKoSQCDsgeyZ/fz+mOxkzplJZpKZ8Ho+HtEAk5nvJJPknPf5fD8fY/LPD5sCAAAAAADIYY6+XgAAAAAAAEBPEXAAAAAAAICcR8ABAAAAAAByHgEHAAAAAADIeQQcAAAAAAAg5xFwAAAAAACAnEfAAQAAAAAAch4BBwAAAAAAyHkEHAAAAAAAIOcRcAAAAAAAgJxHwAEAAAAAAHIeAQcAAAAAAMh5BBwAAAAAACDnufp6Aeh7DkMq8BoaXezUuIEuTRvs0oSBTk0qc6nY69CBuqi2HYloR1VUmw+F9VF1VHurYwpFzb5eOgAAAIA0K/Qamlzm0pQyV/z9wS4VeduujdcGY9p+OKK6oKltRyLafiT+fi47e7RHb3wUyuhjzBvh1h1n5lve5v43G7R2Xzij6+jPCDhOYnluQyOLnRpTGg8zJpfFg42Rxc4OtxtR7NSIYqfOGyd9WBUPOj48GtHWwxHtqYlqb3W0j55B900b4tJNs/wpf9xbe8N6dntAkVgGFgUAAAD0kfIipy4Y79EFE7yaN8Jte/sLx3s7/HntvrCW7whqeUVIlbW5dX5w55n5mjfCnfGAQ5Lt5/b+jK+gfyPgOMl4XYYGFzg0rtSpUwbFU9lTBrk0ssQhj9PocNtITDreFFOBx5DfbcjlkKY0J7lR06vNB8P64GhUWw6HVVEV1a7jUR1rjCnbs9sZQ93626dKuvWxV0316Z6LC3Xar44qEMn2ZwoAAABYmzfCrX+a7T8hsOjO/cwb4dZdH5NeqQjq4XeacqIS4c4z83XH/Dyty4G1wp4x+eeHOUs7CRR4DI0f6NL0IS5NGuTSqUNdGj/AKXenUEOSojFpf11Ua/aEtet4RIPyHZpS5lJ5kVPDCh0nfEwgYmrjgYg2HQyr4lhUa/eFdbAuqlgWvrLmlrv18PXdCzfaa4qYmv2ro2lYUc85DKX9c52J+wQAAED2aNkukUy1Rnet3RfO6i0XLeGGJK3bF9bNj1dn5DHaa3m8RNbuC3cIW9buDWXt5y8bEXCcBFyO+In9LbPzNG+kW3nuE0ONFlFTqqyJ6pF3m7R0a0B1QVMep6HJZU5Nbt7Gcsogl4Y3hx2d1QRMLdkS0G/fbsy6ao7pQ1x6/NOlabu/Kb84krb76o6Wr+JV03w6vTy9v5jWVYa1dEtAkrLqawgAAICeKfQauvviwh5XbKRiyZaA7llZn1V9OtqHG1L6A455I9z603U9v7AqSfevadR9bzak5b76u17bovLpmX65UpzZsvNYNC37oHwuQ4smejWn3K1BeQ753VJj2NTe6phWfxRK+TH68rl0x6B8h84d69WC0e7W6otw1FRVo6n9dVF5nYamDYm/FBqCplbuCumxTQEFm7dghKKm3jsY0XsHI3I5pNnD3Zoy2KUZQ90aWezUqBKnin3x+y32Gbphpk/vHgjrtZ2hrGlEOq1TuHG0IaZzflPV+udtXynTmr1hfeaJ+A81hyFt+beyDj9MBuU79PrnBvbuwhMwFA8evnN+gW6Y4ZeROLPqliun+jR9iEs/fLW+9bEAAACQ2yaXufSn60pU5E3zwaONxdN8umCCV7c8Xq3tRyK9+thd6RxuZIJdM9GU7mt+HgFHknol4CjyGfr2+QVK9dvo7+8HexwKXDvdpzvm52toF9UGkvTPc/zaciiiH6+s19uV9qU/fflcumtwvlPj2m1HOVQf09p9YW05FO+dMX2IqzXgqGqKaeWuUGu40Vkk1lY25XcHNLfcrdnlbk0uc+nsMR45jXigNGOYS6s/CimUBf2Fpg526Yk0Vm5kg5avzrljPZKU8usxmfs/d6xHPxThBgAAQH+weJpPdy8q7LPHL/IaWnJTqb71Up2WNFcK94XeCDck+2aiyIxeCTjGlrrSfgKWjM+enqcvL8hXF20mOpg2xKUHrirW15+v1Yqd1iFEXz2XdNp0KKwfr6jXsaaYhhY6tGC0p/XfGkKmPjhqn6qailfBrNod0qrdIQ0vcuq5W0rldGXXZ2fWMLf+ckN6SsOykcdppL16Q5IMQyc0nQUAAEBuuntRoRZP8/X1MiTF11LoNfTQO029/ti9FW6g7/RKwDG8qK16IhqTdic5VvRgXfcv/88pd+vOM/Naw436kKknNwe0YldIRxqiGl3i1KIJXn1isk9OR7wJ539eUKj3DhzXsabEM0D74rmkW2PIbH2OboehPE/biWw0ZqohlPo1+/210ay70j99iKtfhxsAAACAncXTfFkTbrS469wC1QXNXq3kINw4OfRKwDGkoC0UqKyN6hN/Opbxx/zXs/Jbr0DXBU194ekarW+3BaWiKqpXK0LacCCs755fKIchDS1w6DNz/frZ64n3N/XFc8mkxrCpQ/Vt4YvfbWh0qVPbDvf93riemFyW3oaiuS5mqkOlB7UZAAAAJ4ds3Soxb4S71wIOwo2TR4qtMrtnUF7bw1Q1Jq6OSJdRJU7NGd72jfzX95o6hBvt/e29gFa3641x6SnW3YR7+7lkWihqqrrJVEsv0AKPoSllvdZ7NiMml7m05CbCjRampOpATL94o0G/+keDmsJm1lXbAAAAIDPuerEuKxp7trf9SER3vVjXK49FuHFy6ZUz2d4OBT4+yStn80NGY9Kj71rv73p2e1DnjIn3oSgvcmr6EJc2H+r6h0B/Czgaw6b2VEd1tCGmIQUOlfodOnuMRyt2hiy36mSzZMKNQfkObftKWYe/mz/SfcLf3TE/L6d/IJqSagOmbvpbtXYfj1fq/GNPWL+/plh+t0ElBwAAwEng5sertfSmUg0vcvb1UrS/NprWcaxWCDdOPr1SwTGgXShwpKHnJ81fOydfT91UqgeuLNaY0hO/SacOacttKo5FdLDe+jFf2xlUpN1NzhjpSXjbdD+XvhaNSXtqonprb7yKxe82NHu4W5+Y7FWpv1deHsggQ9Kbe0Kt4YYkvXcgnLCiCQAAAP1PXdDUHctqVRfs2zre3lwH4cbJqXcCjnYnyodtwgY7l07y6ra5eZpS5tLHxnn0lQUnzhcuL2wLPfbX2j9eXbBjH4qRxYmTzXQ+l2xxsC6mFz8MtgY2g/Iduuk0v66a6tXQQoftFBpkL1PxCiXDiL/f8qvkhQ+CfbgqAAAA9Lbe3BaSSG9tlyHcOHn1SsBR6m87Qz7QHAr4XIbmlLu1cKxH04e45EtyvOiwgo7hw6D8E59CSbsQ4miS20iONbaliGVd3GeLdD6XbBGKmnrvYER/2dik2qAppxEPeW4/I1+fOz1P04a4lOfOreeEeGPRvdVRrWmuznE7DTmMeLPRFTtDOtYYoxcHAADASWR5RVD3r2nsk8e+f02jlldk/iIb4cbJrVd6cLQPHMaUOPXI9SWaPsQlb7sgoClsasP+sH6/vqlD08/OXvwwqJtO82tYoUPhqKll207svOtr96yCkeRO4ULRttv5LRoNp/O59B5TsXafBsOIn+i2/7ujDTEt2xbU0EKnLpnoVZHPUJHX0PWn+jW33K3fvt2kN/eEkt6WE+sfxS05zWFIj20KqDFkymFIF07w6FBdTO8eCOt4U0xLtgR02+n88AcAADiZ3Pdmg8qLHLpqau+Njl26NaD73kw8qTJdCDeQ8YBjYJ6jw9X/28/o+gXndxs6a7RH80d59MiGJt2zsr7L21XWRnXVI8c0c6hbe2uiHXoLtHA52h4vfOI/dync7oTcm6ACI93Ppbc0haWGcFua4XVK+R7jhL1vlbVRPbCmQY0hU5dN8mpQvkNOhzRxkEv/eUGBnt4a0B/WN2l/bVTRTrmRv1OFR3XAPOE26D2mpEDY1Gs727anXDLRq0P18YBDim9dufE0v3wumo0CAACcTO5eUa/JZS5N7oXpiduPRHT3isyfDxFuQOqFLSpdNQGVpJqAqX01UVV1KpN3GNLNs/366jkn9tZoURsw9fruUJfhhhQvwe+JRD0nMvFcekNNMKaj7SovCr2Ghhd2/VwO1sd0/5oG/Xx1g3ZURdQQij+jPHe8muMnlxZq7ACXHJ0+R7OGuTv83e7jUUWp4uhTFceirT1onA5D4wY4NWOoS0bzNpWPqqP6KMH3EAAAAPqvuqCpO3uh2WdvPQ7hBlpkPLIr8hoKR025m1ODtfvC+vWaBr21t22Kw7QhLn3u9Dwtmuht/btbTvNrxc5QVk17yNXnEozEx8G2yPcYHabBdFYfMvXstoA27A/r1jl5unCCR6X+eDXH9CFu3b2oUN98oVa72p0cjypxyNEuWaoOxBQ1KeHoS4+826RQNL49yYyauu2pGplmfPuQqfi2rEc2NOmHiwr7eqkAAADoZZXN41qX3FSasce4+fFqVdZm9oIa4Qbay3gFx2s7Q1r4m2O668U63buqXrc8Xt0hEJCkLYci+vKztfrj+qbWv3M7Dd00y5/p5aUkV59LTSCmg3XR1lG4JT6HRhZbf+mjprSnOqp7V9Xr3pUNqqyNKmZKToc0dbBL372gUIXetkBjTrmntXImFDWp4OhDMTM+X/y594MyzfioWIchVTXEdKwxFq/gkGSa0jPbg9rf/LUFAADAyWX7kYi+9VJmJqt866XMT0wh3EBnvTJFpToQ09KtgQ4n/V25d1V9h2+CM0d5uvV4PS0csPrw3n4u6XK4Iabdx+PrKStwaMpgV1LjX5vCpl74MKjvvFynA3VRmYqHHHOGu3Tb3PgPE4/T0GnD2ratbNgfUZgz5j71xu6wws1NUNxOQ6V5jta3AXnxahxJCkdNrdoV6vG2LgAAAOSmJVsCemiD9blNqh7a0KQlW04cBpFOhBvoSq8EHKl47v220UHFvvj41VS13xqR7Ilb+/4R6ao8SMdzSZfKmpi2H4mXh/ldhkaXODWqpOs+HJ2Fo6bWV4Z114t1OtbY1tPhklO88roMzR/l1rBCZ2ujyvWV4aSbuyL9HEZ8BJijubnopZO8evbmAR3eFoz2yFT8++PVihBNRgEAAE5i96yo17p96dlOv25fWPdkuKko4QYSybqAo3OfivKi5E7C2wu1q4TyJPnh3na3S3a0rJ10PJd0OdwQ067jkdbJJmNKXVo41nNCs9BEIjFp6+GIHt8UT2IdhjS80KELxnt04yy/HM2vpGhMeunDoEJp+hwidVFTev9oRIbiW1Eum+RVgcdQoTf+VuAxdPkUX+u/76iKMPEGAADgJHfHspoebynZfiSiO5bVpGlFXSPcgJWsCzgO1HW89F/kTf3acl2o7WytwJvcU/S1G3Pa/uN7Ih3PJV1qAjFtPhjRrmPxH1rDCh06Z4xHg/OTfwk0hU0t2Rpo7dfgcBi6copPC8d4WisA1lWGVdnFGFn0HqchnTPGI6cjPq74rFEeORzxUMphSA6HtGiCR3PK3XI6DC0c60lquxIAAAD6r7qgqbterOv2xJOefnwyCDdgJ+sCjgJPxyU1hVP/Bjlc3xYsJHsC3/52h+rTs0clHc8lnT6siugfH4Vbe4xMHezSp2f5kz65jZnxEb0VVfGQxGlIC8d6Ovz7799uVIDqjT737fMK9NRNpfrV5UVyOtRhC4ohyeU09ODiYi25qVR3faygr5YJAACALLL9SER3vdi9pqN3vZjZpqKEG0hGRgOOWcPcWnfHIK27Y5DWfnGQxpTab9GYVNbxNge7ETbsqW77mPED7B9z4kCXSvxtn4odVSd+Y/bVc0mnA3Uxvb47pJ1V8QCo1O/QeeM8On+8N+keDDGZqk9Q4bK+Mqx1+8Kt01rQd7wuQ2NKnfK5jRO+ti1fPb/b0OhSpzxOo/XvzJY3MioAAICT0vKKoO5ZmVoPjXtW1mt5RdD+ht1EuIFkZTTg2HYkIpdDrfv/zx/ntf2YBaPbKgKaIqberky92c3afaHW9wflOzpUGXTlooltWyzCUVNv7A6dcJu+ei7p9s7+sB7b3NYlecJAl/7ldL8mlbmS+ni3w9Bpw7tulvrT1xtaJ3egbxmKV9h0FVztPh5VfdBsvc2e6mjr7Y43xXSoPsZUFQAAgJPYQ+80aenW5KagLN0a0EPvpHcKS3uEG0hFRgOOYMTUO+1O6q+f4VOhRR+K8QOdunBCW3DwTmW4Ww0/X60IqaqxrYzgM3MSf0Pkewwtnupr/fO7ByI6UHdiCUJfPZd0awybWv1RSMu2tf3AmlLm0tfOyddIm6kqPpehS0/pOtj56esN2no4TO+NLGZKWv1RSFc/cly3PVmtUNTUnctqddUjx/WzNxp0rCmm6x6t1tWPHNfOY1GqOAAAAE5iyWw56cmWlmQQbiBVGe/B8df3Aq3l76NLnPqfy4s1rPDEhz1lkEu//HixCjzx0MCU9OjGrpPAr52Tr6duKtUDVxZ3uVUkEDH193YjWuePdOv/nHtin4FCr6GfXFqkEcVt9/HE5sRJZSaeS1/YWRXVX98LtFaUuJ2GTh/h1t2LCjU7QXWGw5CGFDh0y2x/h783JS3bFtDDG5rYmtIHYmZq20nyPYYKvIZK/Q45DEMl/vhUlWKfIacR/3+Bx5Db0baVBQAAACenmx+vTtg0tC5o6ubHqzP22IQb6I7k9iX0wMs7gnpmW0BXTIlXScwf6dbSfxqgtftC2tvcK2NsqVNnjHLL72qriFi2NaBXK07cKnLpJK9umxt/oU8pk0LRfH352doTbnffmw362FiPRjVXJdwy26+zx3j09r6w6oIxleU7dMYoj4YWtAUUq3Z3rGzI9HPpK6biI1//uL5JpX6Hxg+I92E4bbhb91xcqD++06S/tAtkHIY0otip711YqOHtRt3GmseR/ucr9QpRutGrDMW/jvtqohqU51Cy2dKpQ936+y0D5HVKhiF974JCNS40ld8cxv35+hJFzXh/jnf3hzs8FgAAAE4uLSHGQ9eVdKheb/n7TE1MIdxAd2U84JCk/3ipTk6HocsmxZtZFnkNXTg+cQ+LFz4I6tsvd13qNKygY8XGoARTUuqCpv7t77X69RXFGtpcZTF+gDNh09GNB8L65vP25VXpfC59KRgxtXJXUNWBmL58Vr5OH+GWsznI+NKZeZpT7tbv3m5URVVUs4e79JWz8zVtsFuO5p9rkZj03PsB/ei1eqam9AFT8eDh+8vr9eUFeRpT6mr7y2440tDxjncfj+iXqxsJNwAAAE5y249EdM/Ket29qLD17+5ZWZ+xiSmEG+iJXgk4IjHpa8/VatUun26c5df0Ia7WE+UWMVP64GhEj2xo0pNbEldRvPhhUDed5tewQofCUdOy4mLb4Yiu/8txfWVBvi6c4O2yZ8bh+pie2hLQg2uTG2+azufS1yIx6d0DYf309XrdMT9fC8d65DCkEr9DF03waM5wt3ZURTRjqFv5HkPO5iwpFDX12KaAfrm6IeFEFWSeqfjo3zuXnVjBBAAAAKTLki0BTS5z6ebT/HpoQ5OWZOgch3ADPWVM/vnhXj9DHVbo0NxyjwbmGzJN6VijqXcPhrW3OprUxxf5DM0c6tbemqh2H0/uY7wuQ6eXuzW61Cmfy1BNIKadx6J6Z3/PJpv09LlkA6dDGlns1NXTfLrpNH/r9hpTUiRqyu1s+/OR+ph+9kaDXtsZzFhJWk8tHOPRg4uLM/oYn3miWmv29v1UHAAAAKC3LJ7my1i4cfZojz47r+/Cje2HIymPx7WSzrBm7b6wbslgv5P+pE8CDmQfpyEVeB2aOcylW+fk6YyRHZuNBiKmVu0K6XdvN+qDo9Gs35ZyySle/eLjRRm57zuX1WZ0zjcAAACA3HfnmfFWAD2xbl9Y973ZYH9DSCLgQDuG4hNVhhc5dO5Yj66Z5tPIEqfWV4b12KaA1leGVR2IKcq0FAAAAABAliHgAAAAAAAAOa/rESQAAAAAAAA5hIADAAAAAADkPAIOAAAAAACQ8wg4AAAAAABAziPgAAAAAAAAOY+AAwAAAAAA5DwCDgAAAAAAkPMIOAAAAAAAQM4j4AAAAAAAADmPgAMAAAAAAOQ8Ag4AAAAAAJDzCDgAAAAAAEDOI+AAAAAAAAA5j4ADAAAAAADkPAIOAAAAAACQ8wg4AAAAAABAziPgAAAAAAAAOY+AAwAAAAAA5DwCDgAAAAAAkPMIOAAAAAAAQM4j4AAAAAAAADmPgAMAAAAAAOQ8Ag4AAAAAAJDzCDgAAAAAAEDOI+AAAAAAAAA5j4ADAAAAAADkPAIOAAAAAACQ8wg4AAAAAABAziPgAAAAAAAAOY+AAwAAAAAA5DwCDgAAAAAAkPMIOAAAAAAAQM4j4AAAAAAAADmPgAMAAAAAAOQ8Ag4AAAAAAJDzCDgAAAAAAEDOI+AAAAAAAAA5j4ADAAAAAADkPAIOAAAAAACQ8wg4AAAAAABAziPgAAAAAAAAOY+AAwAAAAAA5DwCDgAAAAAAkPMIOAAAAAAAQM4j4AAAAAAAADmPgAMAAAAAAOQ8Ag4AAAAAAJDzCDgAAAAAAEDOI+AAAAAAAAA5j4ADAAAAAADkPAIOAAAAAACQ8wg4AAAAAABAziPgAAAAAAAAOY+AAwAAAAAA5DwCDgAAAAAAkPMIOAAAAAAAQM4j4AAAAAAAADnP1dcLAAAAAAAAHZ03zqMFoz0qy3doQJ5DpT6HSvyGmsKmjjeZOt4UU1VjTFsOR/TCB0FVNcb6esl9zpj888NmXy8CAAAAAICT3RVTfDp/vEdzy90amJf8hotQ1NSmgxGt/iikJzYHdKTh5Aw7CDgAAAAAAOhDF0/06vNn5GlKWc83WRxviunRjQH9dl2jApGT63SfgAMAgBw2Y6hbV031akSxU4akytqYntke0PrKcF8vDQAA2Jg5zK2vLMjXGSPdab/vytqo/vetRj2xOZD2+85WBBwAAOSoL5yRpzvm58vZqYI1akq/W9eoX6xu6JuFAQAAW1dO9enb5xWowGNk7DFMSX97r0nfX16fscfIJjQZBYBe9tPLivTxSd4e3YcpKRQxFYpKtcGYjjbEVFkb0+ZDYb25J6ztRyLpWSyy1oUTvLrzzHw5ujgmchrSZ+flaUdVVM9sP3mu2uBEs4e79cgnS2R16PzAW436n38QhgFAb/q3Bfn6l7l5J1ykSDdD0g0z/Bpd4tTXnqvTsab+3ZuDgAMAcpAhyesy5HVJhV6nyoucmjlMumySV6ak949EtLwipIc2NKo2QKFef3TtdF+X4UYLQ9LV030EHCe5xdN8luGGJC2a4CXgAIBe9F+LCnX1NF9KH9MUMVXTZOp4ICa/y1Cp36Ein2H7M77FmaM8eui6Et3yRHW/nrZCwAEA/YwhaXKZS5PLXLphhk+PbGjS/65t7OtlIc2GFtpf8hmWxG3Qf7kc8RGDdsYPdGr+SLfW7KVvCwBk2u3z8pIKN6KmtOVQRG/uCemFD4JdVucWeg1dPNGrc8Z4NG+kWyU+69/74wc69ZNLC3XrkzXdXn+2I+AAgH5sYJ5DX16Qr7PHePT152t1oK7/JvYnm/qgfWVOMrdB/3XlFF/SIwYXT/MRcABAhl080asvzs+zvd3blWHd92aD3rL5uVwXNPXE5oCe2BxQkc/QF8/I1zXTfZY9Pc4c5dF3zi/QD1/tnz05uLQDACeBOeVu/e6aEo0pdfb1UpAmqz8K2d7mH3vsb4P+67IUev2cO9YrnytzTe4A4GQ3ptSp719YKLcz8c/a2qCp//Ninf7psWrbcOOEjw2Y+vHKei1+5LjW7bP+2E/N9Oua6altkckVBBwAcJIYW+rUzy4rkpeTmH7h9+ubLEfBbj4U0YNsTTpplRc5NXdE8iMHi31GyvvBAQDJ+9KZ+Sr2JT4G21Md1WefqtHTW3vWO2tfTVS3PlmtJzYHlKiO01B8q0x/PCYk4ACALNQYNlUbSPxWHzIT/tKyMnWwS99YmJ/29aL3BSOm/uWpGv1+faP2VEcVjpoKR03trYnq4Q1NuvXJajWE2KJysrp2uk8ei6uEXbm0h9OdAABdmznMrUUTE/+MPVgX021P1ei9g+nZKhiJSd95uU6PvtuU8DYjip26dY4/LY+XTejBAQBZ6O4V9Xpys3WC73MZGlPq1PxRbp071qvTy91JjRq7eppPj25sUkVVNE2rRV8JREz9ZFWDfrKKCRjo6KIJqYcVpw1za/xAJz8bACDN7pyfJ1eCY7TGsKmvP1+rfTXp/9n7o9fqNbbUqbNGd91w+sZZfv1lY0DVgf7To40KDgDIUYGIqe1HIvrj+iZ95olq/euzNUk1EfW5DN04s/8l9gDi5o/yaPzA1PvtOB3SddP52QAA6TS5zKUFYxJPtLr/zUa9bbHltKe+/nydjjZ0fXw4MM+hT83sX9sTCTgAoJ94tSKkzy6pVk3AflvCwrH2oyMB5KbFU7u/1eSC8fxsAIB0uuQUrxJtGKw4FtXv12e2X9axppge2pB4q8qCBNUduYqAAwD6kYqqqH75D/vtCuVFTiaqAP2Qz2Xo3LGJA46oKR2uT1zpNaLYqQu7sb0FANC1M0clbvj8m15qBv6H5n5dXZk+xKUB/v4TC9CDAwD6mcc3NenOM/Nsf1mdNtyt3cd7vt9zxlC3pg5xqbzQoTyPIadhKBAxdawppj3VUa3dG9axpszv7fS6DM0b4dbYAU4NznfI7zZkSGqKmDreZKqiKqL1+8OqTaLCpadKfA6dMdKtsaVOlfod8roMRWKmGsOm9tfFtPVQJG2NxE4Wo0qcmj3crZHFThX5DLkdhkJRU7VBU/tqonpnfzjhwVsmTS5z6cxRbg0rdMrtlOpDpiprY1qyJaBgpPebvC6e5rPs0r/lUFjv7o/o5tmJt6JcMcWrV3YEM7E8S4VeQwtGezR+gFMlfodcDikQlg41RLXtcCTlkYn9dU0AcsfQAoemDu464KhqjGnZtp5NTElWJBav9G72C7QAACAASURBVP3nLpqKel2GLj7Fq79sTFzlkUsIOACgn4nEpPWVYdsmg0Pyu5/WLxjt0eJpPs0f6dbAPOv7icak949GtLwiqIc3NKkumL6TPq/L0HXTfVo00avpQ1zyu62nRgQjprYdieilD4N6bFMgrVNGSnwO3TDDp/PHezW5zGk5516Kl4y+tTesxzYFtGZPKOXHu3CCV7+6vMjyNt9bXqe/vdfx4OnZWwZo/IDE1TumpMv/dEwVx1ILCxZP8+nuRYWWt3nu/aC++lxt0vc5fqBTN8zw65wxHo0qcSYs8ZXi695bHdXqj0J6eEOTdnUjvHvnzkGWr6FrHz2uLYcikqSzRnv0pTPzNHOYu8t1rdwZ1IG63g84Lj3F+vt+xc6QVu0O6Z9m+xN+PheM9miA39GjYHLTl8sSNtSrC5qa9+ujrX+eP9KtW2bn6YxRbvktRhYea4pp1a6Q/vROk7YfifSLNQHo384c7Un4c2dtLwekL+8IdhlwSNKsYS79ZWOvLidjCDgAoB+yKkFvke9Nffb57OFufeXsfM0p7/qkritOR3w87dTBLn3yVL/+9E5TWvabfnqmX7fN9Wt4UfJbbbwuQ7OGuTVrmFu3zc3T795u1B/W9+yKhcsh3TE/XzfM9KnEl3xoNMDv0KWneHXxRK9W7AzpvjUN2nY48ydIK3cFNX5AXsJ/NxSfwFGRYtlsMnt4X/gguaqAoQUO/fs5Bbp4oifpUaeG4lUeo0r8umqqT09tCeiBtxpV1Zi+6qGWqqjPzcvTF8/Ik9fixDfUB4NIxpbGq1wSicakZ7YHta8mqg+ORjRpUNeHgXluQ1dP9+m36zJTOl3gNVToNRSOSt8+v0BXTfElNQFqgN+hq6b6dOkpXv1tU0A/WVWvSJq+vNm4JgC5z+pi0pq9qV/c6Il39od1sC6moYUnrqk/bVHpP88EANAqmUajqcYb/3pWvv5wbbHmphBudDa4wKGvL8zXnz9ZorJuVpAM8Dv04OJifef8gpTCjc4G5jn0jYUF+v01xRpS0L21TC5z6YkbS3X7GXkphRvtOQzp/PEePfrJEn1yRuY7mT+9NaiYzctj3sjEJ8mJzLE4sZbiodvLSWx7uOQUr568qVSXT/YmHW505ncbunGWX0/cWGp5wp+qYp+h2+fl6SsL8i3DDUkKRXu/euPaU61PyjceDLeOIXx9t/WB9cUTM9eHw5A0pcylP11XrGumJRcktOd1Gbr5NL/+eG1J2g7Ks3FNAHLfQItjnXRsE07V4QTTVAbYVOPmkv7zTAAArUr89ieGjeHkT8B+dlmRvnBGXrdPODubPdytP1xTYrlVoivDCh166LoSLbQYt5aqM0d59LurSzQ0xZDjrNEe/eHa4oRXwVPlcxn6zvmFumN+4uqKdPjgaERbbSpFZg5zK9+T/Nd69nB3l1eE2nv9I/srVbfOydNPLy1K2wni0AKHHriyWBeMT8/J+txyj76Q5NenKYXvr3S50OZ5rtjZ9jVYZhN0TRvi0oyh6QuHOvvl5UU9vv855W79+soi+WzCplxeE4DcNtDi91lf9I06nmDrYYlF76ZcQ8ABAP3QsEL74OBAXXJ11HcvKtRlk9J/NXf8QKd+9vEi2yvhLXwuQ/dfWazxA9M//WX8QKf++xNFCffJdjZtiEu/uKyo21UbiTgN6Y4z83Xt9MxWcry207qSIs9tpBQKnJfEaNFnt1s/5idn+PTVc/JTvnJup8hn6J6LCzW5rOdB1Cdn+JIK+Uyp17cpnDcu3qckkVDU1DPtmtl9WBWx3BJlSLomg6/DdH3vzBzm1rc+VpCW+8rGNQHIbQUJtgNHY9LBJLYTp1ttgj5oBd7+Ewv0n2cCAJAU7/o/t9z+KmRLs0Qr15/q01XTMneSM2mQS99cmJ/Ubb+xMF9T0nCSmsjMYW59eYH9WnwuQ/+1qFBFGbraYUj62jkFGpvBMb5Pbw0qbLOFYsHo5K9kzxthHXDsqY5aNlKdMtilr55dIEeGLiAVeg394MLCpAOsnor2QQ+GK6ZYf5++eyBywsH0KpttKueNS9wcL5tcNdWrOUn8zOtN2bgmAL0vUWN1pyNeldrbihMELo1pbLre12gyCgD9zGfm5KnQpoFoZW28yaCVyWUuffWcAtt+G+Goqbf2hrVyV0h7aqIKRkwNK3RqSplLF07w2PbJuP5Uv/7+flDrKxN3E184xqPrT0081rJFXdDUazuDersyrMramJyGVF7s1MIxHi0Y7ba9+n7DDL/+ujGgytrEZaPfPr8gqW0plbVRvbIjpM2HwjpQF1Op36HhRQ4tHOPRvBFuyykrxT5D3zy3QLcvrbF9nO6orI1q48GIZRCWTEgmxXuZTCmz/hpbnUh7XYbuXlRo+5qVpM2HIlq+I6iKY1Eda4ppaIFDo0qcunCCV1MGuyxfq6cOdelf5ubpf1NsntodUbsmJ2lW5DNsm7x2VbWzdGtAnzs9L2HVTFm+Qx+f7NPTWzM7xrCqMaY394T13sGwjjTEZBjS8EKnzhrl1ryR9iGL22no6+fk64a/VvfrNQHIPVaNrkeVOJOupk2X0gRbZmqC/ac7MgEHAPQjZ4326NYEI8DaW7nLvh/CF87IU5HNSefBupi++0pdFw0Lw1oq6Z6V0nfPL9ANMxOPpHQ6pBtn+i0Dji/OT3wS1mLjgbC+9nxdaxPF9v66sUlzyt265+JCjSxOfDJe4DF00yy/7l1V3+W/Ty5z6UqbK+WS9OSWgH70ar0CkRNPdB96J76Wey8pVLlF+LNgtEcTB7r0YVVmJqssrwhahhjDi5yaNcytdw9Yj7G7eKLXMqwxJS2zOEH+1Eyf7faRpoipX65u0J/e6XrizQNvNer6U3365rkFyrMY87p4mi+tAUd9yNT7RyI6VB9TfciUw4hv70lUkpwpV0/zWQZEgYipZ7adGHDsqY5q86GwZg5L/Dr4xCRvxgIOU9ITmwL6+RsNqg6ceHD9u7eleSPc+q9FhRph8X0rxSuw5pS7LX+O5OqaAOSuoxYBx5hSp97q5VGxgxP0G0umOX2uyIHCQwBAMm6a5dcvP2Hf0yIQMfXoRuvRqOMHOPWxcdZXhGsDpr70TI3tNIYfvFqvJzZZnyB9bJwnYZPPOeVuzbA4AZOkHVUR/fMTNV2GGy3WV4b1haU1XZ60tHeuxfO+bW6e7ZXbJVsC+vZLdV2GG+3X8vklNQn3wkrx8bM3nWYfVnXXsq1BNVmsUZIumGDfW+PMUdZfmw+ORrTJYjuUXWWOKenHK+oThhstHtsU0PeX18vqGY0qceryyT3fcnW0IaafvdGgcx6s0k2PVeurz9XqP1+p03dertNXn6vV55dkpvImkUtsJp68UxlOeBWxfePRrswb6bYM4nriD+sb9d1X6iy/J9fuC+v2pTU6lqAxXntXTe351zYb1wQgdx20qNA4c1T6GqYnY265O+HUuEN90A8kUwg4ACAH+VyGJpe5dN44j756Tr6eublU/3FegQqSmHzxxOaAKqqsO3d/Zq79xJQH1jZocxJ9PCTp3lX1OpJgNJkUH+t52aSuTwQ+bVH9IcVPgH+YoFqis4pjUf12nfWJ8phSZ5cHACOKnbrQ5oR/b01U33+16+qPrtby8AbrtZydQh+MVB1rimndPusrR3a9NSTpNJsxrKssqoUWT/PZ9hp5+cOgHrMJyFos2xbQapvA7aKJPTug3FEV0Y2PVeu36xqTes1l2uQyl061mfzxmkWI8fS2gGU/Fo/TyFiz0Z+sakjqdhXHovrv1fa3Tcd0pWxcE4DctfqjUMKx4aeP6N0+PRdZhOFv77Ov7M0VbFEBgCz0o4sK9aOLCtN+v9sOR/TT1+0Pys+1OSivrI3qEZuT8/YaQqZW7Q7pGouGpacO7fpXkl0viI0Hwlprc6Le3mObmvT5eYn7lBiSZpe79fz7HUv6L5/stR39+JeNTQqmcNL7xKYmffZ0f8IwaViRU2NKndp9PDOj5F7ZEbQ8AZtS5lRZviNhOHXOGI8G5iW+VhI1Zbm94ZJTrCsPojGlvKXkuQ+COtviOfV0mspXn6vrk9F+iVw73WfZnLUpbGrZ9sRfgwN1Mdt+LIsmePU//0juxD9ZdiFrZ49vCuiW2XmWo6UHFzh0yiCXbX+hXFoTgNxW1RjTpoORLpsOD/A7dM10n57cnNk+R1K839X5CSpUIzFpeUX/CTio4ACAk8Se6qi+/Pda2xPwBaM9GpRv/eth5a5QymMw37Pp5dDViefEga6E+0VbvGFzxb6zuqBpGxiUdfH859uUkgYipp7cktpBysH6mPZWJ/5EGpLOymAJ6zPbgqq12HfrdhpaZHHF59yx1mvbciisimOJP9ezbLYebT1sPcq0Kyt3hiy3qYwodtr2TrCSbSeq59uM811XGbb8GkvSazYHtuMHOm1f/6l672Dq+86tqoFazLapKLKSjWsCkPtWf5T450QyW1/T4dY5/oS/+z44GrFshpprCDgA4CSw8UBYtz5Zo71JXHm223IgJdektDO7q95dNf+06+8gqVsNup7aEtCjG5sSvu3q4qR8wkDrk+IthyK2J5JdOdxg/Xmxe9yeCERMvbnX+mtp9TWYa1Nea3XiPKfcbdvEdl1l6q+zY00x1Vl8HQxJMxJUC9l502LUbV+45BSv7ZjBVytObC7a2dPbArbbba7O4LjoZK3aZf9celqhk6psXBOA7PL8B8GE48PHljp169y8jD5+Wb5DN85K3O/qpQ/tf47lEn7iAkA/Vhc09fu3G1Mq8x9n0xNBku46t0DfWJjaWtw2kXrLTPj2I9PG2KwlairpPiDt/fW95LfXSPGr/gMSjFZrMafcrWdvGZDyWgbbVMsU+zJ7LeLFD4O62KJKI9HV5xHFTk0YmPgwIhQ1tdRie8rUwfaHILfOydO5Y60rFLqSb9OLJtGYPDtWzeL6wicmW39u6kOmnt1uf+Ba1RjThv1hy4Z3547xKN9jqCHUd31HNhyIKBQ1LfsD2VV8pVs2rglAdtl9PKqXdgR1aYJtmbfPy9N7ByNak6EQ/SeXFiXcTnq0IaZH3k3tmCjbEXAAQD/15JaAfreuUbtS7N+QzMG4XfDQXYMLOs6EL7I5ua8JxHql0WOyVRRWe/G7K9MjR59/P6hvnRtLuC2p1O/Qx8Z5Tpi2cfFEr6z60G7YH9FBi67swwr77nNqVzmSCwbmOWy3L63dG046kHi1ImQZcBT5DF011ac/9+GBcDBi6khDzHKqi124lW7ZuCYA2ef+Nxv0sXEe+bvo5eV3G7r34kLd8kR12ntu/eDCQp0xMnG15ZKtgT4NrjOBSBkA+qlthyMphxuSEjbf7A0D/B0fu9DmxCAQ7p1fygO7ecU/HfLdmf96vGGxP1jqehKE1QGTZL81otjXd6+zIm/uH/5cM90nv81r45Uktqe0WLY9oEab76dEVx97k92BeF4vfL90lo1rApBdKo5FtdSiT9fgAod+f01Jl81Iu8PrMvTjiwt13amJtxceqo/pj+v7V/WGRMABAFnreFMs4VsyPjPHL6/N1I+u2I2HzSRnp3EQeTYBR7iXdgx05/OYLr3RfOzvNtsYOo+LdTmkmRYNQhvDppZus2642pefU2c/OPpZNME6bKgNmCdMArK7/duV1v1sZg1za3wGe8Ikw65iyy70yYRsXBOA7HP/mkZV1ia+8DSs0KEHryrWJ2f0rOfR2FKn/nBNsa6cmvh+ojHph6/W61iSx5S5hC0qAJCFvv1yneXYsKEFDj198wDLUvvyIqdum+vXr9ekNmbTauTkyao3Qoa+9MZHIe2riSbssD5uoFPjBzhbJ6JcMN5r+dpbu9d+cgevs+6bMdStqUOsD+GKfIY2fGlQWh/X6ZCum+7Xj1fWp/V+U2PzwumTSutsXBOAbFPVGNM3nq/Tg4uLVZDgAk6+x9D3LijU4qk+3b+mUa+nMCluYJ5DX5yfp8VT7Sv8Ht3YpOUpVPnlkn5+yAYA/dPB+pie2GxfVnjjLL9tc8zOYll0MN5oU/pt17g0XVIdiZuLVlkcRBmSLmpXMXB2F1tW2ntlh/1BUza9znLNNdN9dqfUGXPhhMyNLU6Gz+bSnN02m0zIxjUByE7v7A/rh6/WJ5yq0mLmMLceXFysp24s1dfOyU84Vr0s36FPzfTr11cW6/l/HqBPz/TbhhvRWHK/p3MVFRwAkKMeXNuoK6f4EnbGlqQBfoduPyNPd69I/oprMGp9MP5RdVSX/OFY0vfXE3U2AUdvbXNI5gTlR6/V92kDxp5ati2oT830JzxxPmOUp3Uaj9Ue4dqAqWeT2BrRlMTn9PzfVnVoOot4NdF54/ouZCgvcuqiCV693EcHx3b9LBr6IEzIxjUByF7LtgU0vNChO8/Mt9wyaUiaMtilKYNdum1unsJRUzWB+JvPHZ+ylqgSxIrTIf3qiuLW7TJ7qqP65gt1CvZC0/beQAUHAOSo2oCZ1An11dN8CbcedOVYo/UJ5aA8R69t2agNWK+lxOfolZDjYJ19s1arKQq5YOOBsHYcTTxyd8ZQl/I9hk4Z5LKcorN6Tyipg6Qqm9eZJE0q4zpMZ5dN8qnMZrRwpl0xpW+ajboc9lOeGkK9G4hl45oAZL//Xduob71Up7pg8qGC22loUL5D4wc6VV7kTDnc2N+u/0eR19CUMpemlLl08USvfn1FUZ/2xkonAg4AyGG/X99k2bBKiu/nvHN+XtL3WVlrfTCe7zE0f2TvXEHeXW393JwOadrgzJ8Ebz0SsS0nnWbTEyEXrNyVeJtKntvQBeO9unCCx3J7xIsfJHdlP5kJP+nqJt+ffHxy308yOWu0J+Wtb+kwc5jbtgnyvpreDROycU0AcsOybQHdvrRG+2rSOxq2s1DU1ANvNeqC3x3T2n1dN5M+a7Sn34QcBBwAkMOCEVN/ese+iuPSSV5NSTII2HzIepKCJF3cS+Mi1+yxX8u8EamfBN8+L0+//ERRwreLOk2oqA2YtmHLjKGunK/iWLotIKsdSgtGu3WGRbh1uD6mFz9MLuB4a0/Itg/H2aP7tt9Dthla4NAZ3Xi9p1ue29A103vW5b87TWbPsen9IiX38yuRbFwTgP7tnf1hffpv1frre01qysAWkV3Ho/r80lr9zz8aJMkyTOkvIQcBBwDkuIc3NKmiyvrk2+M0dOf8/KTub8XOkEI2fTgWTfT2uEx+4kD7wOWDoxEdabC++rkgiROMzi6d5NWiiYnfBnXx3Dbstz5J8bkM3TLbn/Ja2kvmc5JJFVVRbTmUeJvKvJEenWpRqfLGR8l3ez9YH9MHFltiJGlymUsX2oxDtdPXn9N0uvbU5EY/W42YTuYtGRdP7NnX5dShqQc1C8daf6+bktYluDqZjGxcE4D+70hDTN9fXq9rHjmu594PpqWx+YdHI/rBq/W67I/HtGZP8r+b+0PI0X9+6wPASew36xp17yWFlrf52DiP5o90a81e64PtQ/Uxra8M68xRiQ/ci7zxMWZ3LKvp1nq/e36BLj7Fqy8srdV7B63Xs25fWJdNSnwyNXu4W7OGufXugeROImYNc2v8AOtffxVVJ554/317QNfaXLW+/lSfXtkRTFgCamVymUu/vbpYr+0M6Tsv16X88enyWkVQM4Z2/fkZatNr4Lkkmou2t2JnSJNt+mx8c2G+3t4XVrVNP5auXDnVp+9dUKB7VtTrsU2Jxy7niouSmGDyxadr9NrO5A9mE3nj8wMtGxhPHeLSjKFu2+/fRMYNcMrrMpJuanfpJK+m2LxWdhyN6FB9988MsnFNAE4eu45H9dXnajV+gFOXnOLVmaM8OnWoy3YbXIuDdTFtPBjWKzuCenZ717+PX98d0mWTvPJZBBgtIccXl9XmZONRKjgAoB9Yti2g9w5aXw13GNIdZyZXxZHMyeD54z369nkFSd1fC6/L0N2LCvWpmfHxtb+6vMj2BPcvG5tk9evVYUjfu7AgqasNXpehry+07lpeEzC7DCjW7A1rk83n2OsydO8lRZqR4pXgs0Z79OBVxRqY59C10336jxQ/r+m0dGvAtoKnK3uqo1qdQgWHJD26sUkNNpNyRhQ7dd8VRSn3fLj5NL9+cGGBfC5D/3Fega6Y0rMtFX1tbrlbpwyy/l45WB9LS7ghSf+w2R5mSLaBn51vLkzu59GwQoe+sdD+e+KVip4/92xcE4CTS8WxqO5f06ibHqvW+b89pm+/XKf71zTqr+816eUdQa3bF9Ybu0P6+/tBPfJuk/57dYOuf/S4zvttlf7t2dqE4YYkvfBBUN99uV4Bm+Ailys5CDgAoJ/437caLIMAKX6SdEkS/TNe+CCojUlURNw4y6//t7jYNqSQpAsnePX4p0q0eFrbSdHgAofuu6JIYy2mcrxdGdYmm6vEkwa59LurizWsMPGvtZElTj1wZZFmD7cOH1buSnxg8Lu3G20/x0MLHfrN4mJ9Zo79dpWyfIe+c36BHriyqMMkhptm+fXvZyd3opVuB+tjeveAdZDTldd3p34id6Qhpqe22Idpc8rdevj6Ep0/3r6CYdoQlx68qlh3fayg9aqXx2no+xcWnNBbJZck0/Mi1YDJSjLNYs8b5+nRRKVPzfTrnosLLa8kTi5z6f8tLrGtHgpHzaReS7m4JgAnr6rGmJ7cHNB9bzbo+8vr9a/P1Ormx6v12SU1+tpztfqv1+r14NpGbbLYXtrZM9sD/TrkYIsKAPQTr+0M6a29Yc0faX0C//l5eXohiZOXn77eoN9eXWz7i+3sMR7NHeHW+sqw1uwNa291VEcaYnI7pRFFTk0Z7NIZI92akKAXQnmRU7++slifXZK4k/gDbzXqvsuLLSsv5pS7tfSmAVqxK35140BdTNGYqfIip+aP8mjhWI+KvNbPJRgx9fCGxE1bX/wwqNcqQrYn2sU+Q99YWKAbZvj15p6wNh4M63B9TA0hUwPyDI0f4NKsYW7NH+VWnrvrNf3L6XlqCsc7n/e25TuCKTVvNSUt25ba9pQW961p0PnjPbYNWscNcOq+K4q16WBYa/aEW/uzRM14UDZpkEtzy+Pblbp6nfhchu65uFDBiKlV3Qhj+pLXZehcm14PkvRCiluErCyvCOpQfUxDLE7iB+U79InJPi3d2v2T+Kum+jR/pEfLK4LaeCCiA3VRuRzxyp2zRnl07jhPwu+R9l7eEUrbJIJsXBMApNMz2+M/t39wUUG/265CwAEA/cj9bzbo9BElstquObnMpRtm+vXXjdbTV96uDOs36xr1pSS2tfhchhaM9mhBN6dejCxx6tShroQnAyt2hvT45ibdMMO6KqLIZ+iKKb5ub0d4bFNAm22ugvzg1TpNLivR8CQmpowqcWpUiVOfnJH6egxJ54719EnAsXRbQF9ekJ/USZwU7zPQ3V4MtQFT319er19dbn+VyJA0Y6g75S1ALfI9hs4e48m5gOPKKV6V2mzRqayNptTkNRmrPwrp6mnWr91PTPb2KOCQ4lVPN87y68ZZ3fv42oCpn7/R0KM15MKaACCd+mvIwRYVAOhH3q4Ma8VO+6u4t85JbhrDr9c06sleKLH+7bpGPW9z9fnelQ1632bqRk+srwzr/66qt73dofqY/v25uqSnTXTXgbqYvv5C3zQbrQ2YWmvTjLa9lbt6dmL9+u6QfryyQdEM92L8x0ch3b3C/mucbS6dZB+QvbE7/ZM6kmkae/oId5+PR/7d+kZV1mZXpUQ2rgkAOuuP21UIOACgn7nvzUbbJpEji526NYkeEZL07Zfq9ODaxoycfMbMeIjy36vtr3QGIqbuXFarncfSf9Kw8UBY//pMbdKj2TYeCOvWJ2tUkYG1SPFO6p99qlp7q/vuBOmVHcltd4ia8YqPnvrre036xgu1qg1k5urQip0h3bGsNiP3nUkjS5yaM9y+4Pa599MfRK7+KGR7ku5xGj1uNtoTz38Q1G/W9n6Vk5VsXBMAJNLfQg4CDgDoZ7YfiSTVY+PGWX6V+JL7NfDfqxv0rZfqujWqM5Gqxpi++3KdfvVm8mXc+2qiuvnxar2Rpi0GpqRntwd121M1OpZiRcb2IxHd9LdqrUjT1IqW9bxaEdJnnqjOWHiSrGffD6omibBhy6GIKqrSs9bn3g/qtqeq03Z/Uryvyu/XN+oLT9fYHrxlo+un++S2GRH4UXW0W6OJk5FMZUh3mrc+sz1oO5XIzvMfBPWN59MXWmXjmgCgN/SnkIOAAwD6ofvXNKoxbP1LamCeQ7efkZf0fS7bFtAn/nRcD29oUl2w+yeKTRFTz2wP6to/H+/W9peqxpg+u6RGP3qtXgfquh+47Doe1defq9XXn6+1HVWaSHUgpi88XaM7l9V2uwdFi4pjUd31Yp3uWFajQ/UZ3quRhGDE1D+S6OmQzJaoVGw+FNFVjxzTvavqe1TiHzOltfvilTY/WZW7vRAuSCI8SFfg15Vnt9t/j44f6NRZKfbfiURN3fx4tf78blPSlVMt6oKmfrG6Qf/+9+SrrnJ1TQDQW/pLyEGTUQDoh/ZUR7V0a0Cfnmm9DeWa6T49vKEp6RPJqsaY7l5Rr9+/3agbZvp1zhiPJg502l5hDkVNVRyL6s09IT2yoalHwUSLP7/bpCc2B3TddJ8WTfRq+hCX/DZNMRtCpt47GNYz24NaksbeIssrglpeEdRFE7z6xGSv5pS7NTDP/hrC0YaYNh+K6OltgaSqbnrb8x8EdemkxCfY4ajZ4waTXYnEpD+ub9JfNgZ0/ak+nTfOo1OHulXgsf76mpL2Vke1YX9Yj24M9Dh06mtnj/ZYjlBu8ez2zL123q4Ma/fxqMbYrGPxVF9SgVh7gYipH71Wr1d2BPWZOXmaN9Jt2ejucH1MyyuC+sM7TRnbvpWNawKA3tIfGo8ak39+OLtWBADIKYVeQ/NGeDS6xKmB+Yb8zb8Q64KmaoOm9tdFtfqjUMZ6K7TwugzNjC9ERAAAIABJREFUG+HWuAFOleU7lOc2ZBhSUzgezHxwNKJ1+8K9tk1hcplL04a4VF7kVIHHkNdlqClsqiYQU3XA1KaDYduJLWjjcsRHAY8f4NKwQof8bkNOh1QfMlUXNFXVENNb+8KM5cwSm75cJpdFxrdkS0DfeqljE91Cb3wa0/gBTpX6HXI5DAUipg7VR7XpYERvV/YssMrGNQFANrp8ss825JDizbuzLeSgggMA0CN1QVPLK/q++iAYMfX67pBe393XK4nbfiSi7UcIMNIlEpPe2hvWWylMd0FuqQuaWVfJlI1rAoBMS6WS498X5OueldkzoYweHAAAAAAAoFUyPTk2HYzogbeya2oUAQcAAAAAAOjAKuTYdDCizy2pSeuEvXQg4AAAAAAAACfoKuTI1nBDogcHAAAAAABIoH1Pjg+PRrM23JAIOAAAAAAAgIVntgdUH4ppw/5I1oYbEgEHAAAAAACw8drOUF8vwRY9OAAAAAAAQM4j4AAAAAAAADmPgAMAAAAAAOQ8Ag4AAAAAAJDzCDgAAAAAAEDOMyb//LDZ14sAAAAAAADoCSo4AAAAAABAziPgAAAAAAAAOY+AAwAAAAAA5DwCDgAAAAAAkPMIOAAAAAAAQM4j4AAAAAAAADmPgAMAAAAAAOQ8Ag4AAAAAAJDzCDgAAAAAAEDOI+AAAAAAAAA5j4ADAAAAAADkPAIOAAAAAACQ8wg4AAAAAABAziPgAAAAAAAAOY+AAwAAAAAA5DwCDgAAAAAAkPMIOAAAAAAAQM4j4AAAAAAAADmPgAMAAAAAAOQ8Ag4AAAAAAJDzCDgAAAAAAEDOI+AAAAAAAAA5j4ADAAAAAADkPAIOAAAAAACQ8wg4AAAAAABAziPgAAAAAAAAOY+AAwAAAAAA5DwCDgAAAAAAkPMIOAAAAAAAQM4j4AAAAAAAADmPgAMAAAAAAOQ8Ag4AAAAAAJDzCDgAAAAAAEDOI+AAAAAAAAA5j4ADAAAAAADkPAIOAAAAAACQ8wg4AAAAAABAziPgAAAAAAAAOc/YumCmGTWlmGkqKlNRU4qapmKmmv8cfz+m+P9NSaZMmWZfLx0AAGSrH1w9qK+XAAAAcpIhI/4/yTBkGJLhMCRH2/stb2r3vuEw5HLIiAcWMuRQS4ARDzHi/9Z8x6ZkGJJpSqYMmQYJBwAA6JrhMPp6CQAAIJcZ8QxCHd6MDn/u/O8uh9EWakjt3zc6vGe0BiHt/xYAAOBEhoNdsAAAoPtawwsZMhySYbRUbMTfb3lTu/ddLVUa7QOO+L3F/2A0Rxvx6g1DMkxRuwEAAKwYzr5eAQAAyG3xLSnxdw3J0RJ6xN+XQ52qOyRXvMLDkKO5OqNlm4qj7T5lmM31G83pSef+G9RyAACA9hxUcAAAgJ5oF24YrVtS2ldsNG+JbV/BYag51DAkhxkv2zBbmm0YhgzTVKw5BFFzk1Gd0H+DiAMAALQxnBwbAACAHjoh5GgJNtTcjyO+ZaWlmsPV0p3UMNt6djhMtW5RMQ1Dhtk8OcXo/CgAAAAnoskoAABIRcIyiva9ONo1Gm1rMNo2dcXVdntDhmHGt6MYZryaw5BMMx5smO1CjfYPzOELAAA4AQEHAABIQaIjhw59OFqDDaO1mqPl3wxJLqN5G0pL+OFovmszXrYR366illCj/X8JNwAAQNfYogIAAFKSaJqJ0VrAoc5VHB1DjuYtKm1bUwzFDDPek8OM37BlNGxz843EZSMAAADN2KICAABSYhFwtP6vfajROeRobTLa3FQ01hxytPTbMNU8Grb5jrp6PA5fAABAZwQcAAAgZTYVFR22pHQKOaSWJqOKj1txtOu3YXaamJIoTOniMQEAwEmOgAMAAHRL6xYSo8uwobW56AlNR414Dw6ZzdtSDKO5aqNtYopJfAEAAFJEwAEAAFJiNpdVtDXcaNP+7zr15GgJN2RIrrZgw2yt2ujQWLT5P9bbYTiIAQAAbQxHX68AAADkFNMmV2g/N7Yl6+gQcrTbotJS3tESdEitfUVFgAEAAFJicOwAAABSkMShQ+fKDbV/N75FJf6HluoNQ0aH4MTs4r3OK+AQBgAAtMcWFQAAkEntG47G/y+5HC2jX414tw1TrX1FJbWPNRIfqHAIAwAA2jOo4AAAAClLYrxJ50OMzhUcMpsrN1pua7T13ODwBAAApIweHAAAIFVJ9+Fot5+k3VYVV8tUlZbKDbP5Xwg2AABAd1HBAQAAUtadw4d2hR0uo3VjirocM5tEgQgAAEBHHCQAAIAMahuq0nbQ4Wop62gXcyi5zhv/n7371227CgMwfJKahKggIaQuoRNIwIAECwMbExMDQ1ck7gIugBnEyIUgbgAkJhaQqFQkUBiaoSkDCm1SYzNAU9IU2vypnZc+z2DZ/tnWGT+9Pj4GAHgwOzgAgIX5e+yYHJo/5vddBQA4CaMEALBAKysHOzjuPrOspQAA/yd2cAAAx/NfB2T8m8PzxkHgmB+5BAAAALAIpygSd3+icgYfBQBwmMECAFiwydE/hD3uthATDAAAALAk/zxkdP6gKwAAJ+QIDgDguE5+Csdft5N7dwEAzorpAgA4ntNOD6tnsgoAAACAJZr4fgUAOHMGDABgwezgAAAAAPIEDgAAACBP4AAAAADyBA4AAAAgT+AAAAAA8gQOAAAAIE/gAAAAAPIEDgAAACBP4AAAAADyBA4AAAAgT+AAAAAA8gQOAAAAIE/gAAAAAPIEDgAAACBP4AAAAADyBA4AAAAgT+AAAAAA8gQOAAAAIE/gAAAAAPIEDgAAACBP4AAAAADyBA4AAAAgT+AAAAAA8gQOAAAAIE/gAAAAAPIEDgAAACBP4AAAAADyBA4AAAAgT+AAAAAA8gQOAAAAIE/gAAAAAPIEDgAAACBP4AAAAADyBA4AAAAgT+AAAAAA8gQOAAAAIE/gAAAAAPIEDgAAACBP4AAAAADyBA4AAAAgT+AAAAAA8gQOAAAAIE/gAAAAAPIEDgAAACBP4AAAAADyBA4AAAAgT+AAAAAA8gQOAAAAIE/gAAAAAPIEDgAAACBP4AAAAADyBA4AAAAgT+AAAAAA8gQOAAAAIE/gAAAAAPIEDgAAACBP4AAAAADyBA4AAAAgT+AAAAAA8gQOAAAAIE/gAAAAAPIEDgAAACBP4AAAAADyBA4AAAAgT+AAAAAA8gQOAAAAIE/gAAAAAPIEDgAAACBP4AAAAADyBA4AAAAgT+AAAAAA8gQOAAAAIE/gAAAAAPIEDgAAACBP4AAAAADyBA4AAAAgT+AAAAAA8gQOAAAAIE/gAAAAAPIEDgAAACBP4AAAAADyBA4AAAAgT+AAAAAA8gQOAAAAIE/gAAAAAPIEDgAAACBP4AAAAADyBA4AAAAgT+AAAAAA8gQOAAAAIE/gAAAAAPIEDgAAACBP4AAAAADyBA4AAAAgT+AAAAAA8gQOAAAAIE/gAAAAAPIEDgAAACBP4AAAAADyBA4AAAAgT+AAAAAA8gQOAAAAIE/gAAAAAPIEDgAAACBP4AAAAADyBA4AAAAgT+AAAAAA8gQOAAAAIE/gAAAAAPIEDgAAACBP4AAAAADyBA4AAAAgT+AAAAAA8gQOAAAAIE/gAAAAAPIEDgAAACBP4AAAAADyBA4AAAAgT+AAAAAA8gQOAAAAIE/gAAAAAPIEDgAAACBP4AAAAADyBA4AAAAgT+AAAAAA8gQOAAAAIE/gAAAAAPIEDgAAACBP4AAAAADyBA4AAAAgT+AAAAAA8gQOAAAAIE/gAAAAAPIEDgAAACBP4AAAAADyBA4AAAAgT+AAAAAA8gQOAAAAIE/gAAAAAPIEDgAAACBP4AAAAADyBA4AAAAgT+AAAAAA8gQOAAAAIE/gAAAAAPIEDgAAACBP4AAAAADyBA4AAAAgT+AAAAAA8gQOAAAAIE/gAAAAAPIEDgAAACBP4AAAAADyBA4AAAAgT+AAAAAA8gQOAAAAIE/gAAAAAPIEDgAAACBP4AAAAADyBA4AAAAgT+AAAAAA8gQOAAAAIE/gAAAAAPIEDgAAACBP4AAAAADyBA4AAAAgT+AAAAAA8gQOAAAAIE/gAAAAAPIEDgAAACBP4AAAAADyBA4AAAAgT+AAAAAA8gQOAAAAIE/gAAAAAPIEDgAAACBP4AAAAADyBA4AAAAgT+AAAAAA8gQOAAAAIE/gAAAAAPIEDgAAACBP4AAAAADyBA4AAAAgT+AAAAAA8gQOAAAAIE/gAAAAAPIEDgAAACBP4AAAAADyBA4AAAAgT+AAAAAA8gQOAAAAIE/gAAAAAPIEDgAAACBP4AAAAADyBA4AAAAgT+AAAAAA8gQOAAAAIE/gAAAAAPIEDgAAACBP4AAAAADyBA4AAAAgT+AAAAAA8gQOAAAAIE/gAAAAAPIEDgAAACBP4AAAAADyBA4AAAAgT+AAAAAA8gQOAAAAIE/gAAAAAPIEDgAAACBP4AAAAADyBA4AAAAgT+AAAAAA8gQOAAAAIE/gAAAAAPIEDgAAACBP4AAAAADyBA4AAAAgT+AAAAAA8gQOAAAAIE/gAAAAAPIEDgAAACBP4AAAAADyBA4AAAAgT+AAAAAA8gQOAAAAIE/gAAAAAPIEDgAAACBP4AAAAADyBA4AAAAgT+AAAAAA8gQOAAAAIE/gAAAAAPIEDgAAACBP4AAAAADyBA4AAAAgT+AAAAAA8gQOAAAAIE/gAAAAAPIEDgAAACBP4AAAAADyBA4AAAAgT+AAAAAA8gQOAAAAIE/gAAAAAPIEDgAAACBP4AAAAADyBA4AAAAgT+AAAAAA8gQOAAAAIE/gAAAAAPIEDgAAACBP4AAAAADyBA4AAAAgT+AAAAAA8gQOAAAAIE/gAAAAAPIEDgAAACBP4AAAAADyBA4AAAAgT+AAAAAA8gQOAAAAIE/gAAAAAPIEDgAAACBP4AAAAADyBA4AAAAgT+AAAAAA8gQOAAAAIE/gAAAAAPIEDgAAACBP4AAAAADyBA4AAAAgT+AAAAAA8gQOAAAAIE/gAAAAAPIEDgAAACBP4AAAAADyBA4AAAAgT+AAAAAA8gQOAAAAIE/gAAAAAPIEDgAAACBP4AAAAADyBA4AAAAgT+AAAAAA8gQOAAAAIE/gAAAAAPIEDgAAACBP4AAAAADyBA4AAAAgT+AAAAAA8gQOAAAAIE/gAAAAAPIEDgAAACBP4AAAAADyBA4AAAAgT+AAAAAA8gQOAAAAIE/gAAAAAPIEDgAAACBP4AAAAADyBA4AAAAgT+AAAAAA8gQOAAAAIE/gAAAAAPIEDgAAACBP4AAAAADyBA4AAAAgT+AAAAAA8gQOAAAAIE/gAAAAAPIEDgAAACBP4AAAAADyBA4AAAAgT+AAAAAA8gQOAAAAIE/gAAAAAPIEDgAAACBP4AAAAADyBA4AAAAgT+AAAAAA8gQOAAAAIE/gAAAAAPIEDgAAACBP4AAAAADyBA4AAAAgT+AAAAAA8gQOAAAAIE/gAAAAAPIEDgAAACBP4AAAAADyBA4AAAAgT+AAAAAA8gQOAAAAIE/gAAAAAPIEDgAAACBP4AAAAADyBA4AAAAgT+AAAAAA8gQOAAAAIE/gAAAAAPIEDgAAACBP4AAAAADyBA4AAAAgT+AAAAAA8gQOAAAAIE/gAAAAAPIEDgAAACBP4AAAAADyBA4AAAAgT+AAAAAA8gQOAAAAIE/gAAAAAPIEDgAAACBP4AAAAADyBA4AAAAgT+AAAAAA8gQOAAAAIE/gAAAAAPIEDgAAACBP4AAAAADyBA4AAAAgT+AAAAAA8gQOAAAAIE/gAAAAAPIEDgAAACBP4AAAAADyBA4AAAAgT+AAAAAA8gQOAAAAIE/gAAAAAPIEDgAAACBP4AAAAADyBA4AAAAgT+AAAAAA8gQOAAAAIE/gAAAAAPIEDgAAACBP4AAAAADyBA4AAAAgT+AAAAAA8gQOAAAAIE/gAAAAAPIEDgAAACBP4AAAAADyBA4AAAAgT+AAAAAA8gQOAAAAIE/gAAAAAPIEDgAAACBP4AAAAADyBA4AAAAgT+AAAAAA8gQOAAAAIE/gAAAAAPIEDgAAACBP4AAAAADyBA4AAAAgT+AAAAAA8gQOAAAAIE/gAAAAAPIEDgAAACBP4AAAAADyBA4AAAAgT+AAAAAA8gQOAAAAIE/gAAAAAPIEDgAAACBP4AAAAADyBA4AAAAgT+AAAAAA8gQOAAAAIE/gAAAAAPIEDgAAACBP4AAAAADyBA4AAAAgT+AAAAAA8gQOAAAAIE/gAAAAAPIEDgAAACBP4AAAAADyBA4AAAAgT+AAAAAA8gQOAAAAIE/gAAAAAPIEDgAAACBP4AAAAADyBA4AAAAgT+AAAAAA8gQOAAAAIE/gAAAAAPIEDgAAACBP4AAAAADyBA4AAAAgT+AAAAAA8gQOAAAAIE/gAAAAAPIEDgAAACBP4AAAAADyBA4AAAAgT+AAAAAA8gQOAAAAIE/gAAAAAPIEDgAAACBP4AAAAADyBA4AAAAgT+AAAAAA8gQOAAAAIE/gAAAAAPIEDgAAACBP4AAAAADyBA4AAAAgT+AAAAAA8gQOAAAAIE/gAAAAAPIEDgAAACBP4AAAAADyBA4AAAAgT+AAAAAA8gQOAAAAIE/gAAAAAPIEDgAAACBP4AAAAADyBA4AAAAgT+AAAAAA8gQOAAAAIE/gAAAAAPIEDgAAACBP4AAAAADyBA4AAAAgT+AAAAAA8gQOAAAAIE/gAAAAAPIEDgAAACBP4AAAAADyBA4AAAAgT+AAAAAA8gQOAAAAIE/gAAAAAPIEDgAAACBP4AAAAADyBA4AAAAgT+AAAAAA8gQOAAAAIE/gAAAAAPIEDgAAACBP4AAAAADyBA4AAAAgT+AAAAAA8gQOAAAAIE/gAAAAAPIEDgAAACBP4AAAAADyBA4AAAAgT+AAAAAA8gQOAAAAIE/gAAAAAPIEDgAAACBP4AAAAADyBA4AAAAgT+AAAAAA8gQOAAAAIE/gAAAAAPIEDgAAACBP4AAAAADyBA4AAAAgT+AAAAAA8gQOAAAAIE/gAAAAAPIEDgAAACBP4AAAAADyBA4AAAAgT+AAAAAA8gQOAAAAIE/gAAAAAPIEDgAAACBP4AAAAADyBA4AAAAgT+AAAAAA8gQOAAAAIE/gAAAAAPIEDgAAACBP4AAAAADyBA4AAAAgT+AAAAAA8gQOAAAAIE/gAAAAAPIEDgAAACBP4AAAAADyBA4AAAAgT+AAAAAA8gQOAAAAIE/gAAAAAPIEDgAAACBP4AAAAADyBA4AAAAgT+AAAAAA8gQOAAAAIE/gAAAAAPIEDgAAACBP4AAAAADyBA4AAAAgT+AAAAAA8gQOAAAAIE/gAAAAAPIEDgAAACBP4AAAAADyBA4AAAAgT+AAAAAA8gQOAAAAIE/gAAAAAPIEDgAAACBP4AAAAADyBA4AAAAgT+AAAAAA8gQOAAAAIE/gAAAAAPIEDgAAACBP4AAAAADyBA4AAAAgT+AAAAAA8gQOAAAAIE/gAAAAAPIEDgAAACBP4AAAAADyBA4AAAAgT+AAAAAA8gQOAAAAIE/gAAAAAPIEDgAAACBP4AAAAADyBA4AAAAgT+AAAAAA8gQOAAAAIE/gAAAAAPIEDgAAACBP4AAAAADyBA4AAAAgT+AAAAAA8gQOAAAAIE/gAAAAAPIEDgAAACBP4AAAAADyBA4AAAAgT+AAAAAA8gQOAAAAIE/gAAAAAPIEDgAAACBP4AAAAADyBA4AAAAgT+AAAAAA8gQOAAAAIE/gAAAAAPIEDgAAACBP4AAAAADyBA4AAAAgT+AAAAAA8gQOAAAAIE/gAAAAAPIEDgAAACBP4AAAAADyBA4AAAAgT+AAAAAA8gQOAAAAIE/gAAAAAPIEDgAAACBP4AAAAADyBA4AAAAgT+AAAAAA8gQOAAAAIE/gAAAAAPIEDgAAACBP4AAAAADyBA4AAAAgT+AAAAAA8gQOAAAAIE/gAAAAAPIEDgAAACBP4AAAAADyBA4AAAAgT+AAAAAA8gQOAAAAIE/gAAAAAPIEDgAAACBP4AAAAADyBA4AAAAgT+AAAAAA8gQOAAAAIE/gAAAAAPIEDgAAACBP4AAAAADyBA4AAAAgT+AAAAAA8gQOAAAAIE/gAAAAAPIEDgAAACBP4AAAAADyBA4AAAAgT+AAAAAA8gQOAAAAIE/gAAAAAPIEDgAAACBP4AAAAADyBA4AAAAgT+AAAAAA8gQOAAAAIE/gAAAAAPIEDgAAACBP4AAAAADyBA4AAAAgT+AAAAAA8gQOAAAAIE/gAAAAAPIEDgAAACBP4AAAAADyBA4AAAAgT+AAAAAA8gQOAAAAIE/gAAAAAPIEDgAAACBP4AAAAADyBA4AAAAgT+AAAAAA8gQOAAAAIE/gAAAAAPIEDgAAACBP4AAAAADyBA4AAAAgT+AAAAAA8gQOAAAAIE/gAAAAAPIEDgAAACBP4AAAAADyBA4AAAAgT+AAAAAA8gQOAAAAIE/gAAAAAPIEDgAAACBP4AAAAADyBA4AAAAgT+AAAAAA8gQOAAAAIE/gAAAAAPIEDgAAACBP4AAAAADyBA4AAAAgT+AAAAAA8gQOAAAAIE/gAAAAAPIEDgAAACBP4AAAAADyBA4AAAAgT+AAAAAA8gQOAAAAIE/gAAAAAPIEDgAAACBP4AAAAADyBA4AAAAgT+AAAAAA8gQOAAAAIE/gAAAAAPIEDgAAACBP4AAAAADyBA4AAAAgT+AAAAAA8gQOAAAAIE/gAAAAAPIEDgAAACBP4AAAAADyBA4AAAAgT+AAAAAA8gQOAAAAIE/gAAAAAPIEDgAAACBP4AAAAADyBA4AAAAgT+AAAAAA8gQOAAAAIE/gAAAAAPIEDgAAACBP4AAAAADyBA4AAAAgT+AAAAAA8gQOAAAAIE/gAAAAAPIEDgAAACBP4AAAAADyBA4AAAAgT+AAAAAA8gQOAAAAIE/gAAAAAPIEDgAAACBP4AAAAADyBA4AAAAgT+AAAAAA8gQOAAAAIE/gAAAAAPIEDgAAACBP4AAAAADyBA4AAAAgT+AAAAAA8gQOAAAAIE/gAAAAAPIEDgAAACBP4AAAAADyBA4AAAAgT+AAAAAA8gQOAAAAIE/gAAAAAPIEDgAAACBP4AAAAADyBA4AAAAgT+AAAAAA8gQOAAAAIE/gAAAAAPIEDgAAACBP4AAAAADyBA4AAAAgT+AAAAAA8gQOAAAAIE/gAAAAAPIEDgAAACBP4AAAAADyBA4AAAAgT+AAAAAA8gQOAAAAIE/gAAAAAPIEDgAAACBP4AAAAADyBA4AAAAgT+AAAAAA8gQOAAAAIE/gAAAAAPIEDgAAACBP4AAAAADyBA4AAAAgT+AAAAAA8gQOAAAAIE/gAAAAAPIEDgAAACBP4AAAAADyBA4AAAAgT+AAAAAA8gQOAAAAIE/gAAAAAPIEDgAAACBP4AAAAADyBA4AAAAgT+AAAAAA8gQOAAAAIE/gAAAAAPIEDgAAACBP4AAAAADyBA4AAAAgT+AAAAAA8gQOAAAAIE/gAAAAAPIEDgAAACBP4AAAAADyBA4AAAAgT+AAAAAA8gQOAAAAIE/gAAAAAPIEDgAAACBP4AAAAADyBA4AAAAgT+AAAAAA8gQOAAAAIE/gAAAAAPIEDgAAACBP4AAAAADyBA4AAAAgT+AAAAAA8gQOAAAAIE/gAAAAAPIEDgAAACBP4AAAAADyBA4AAAAgT+AAAAAA8gQOAAAAIE/gAAAAAPIEDgAAACBP4AAAAADyBA4AAAAgT+AAAAAA8gQOAAAAIE/gAAAAAPIEDgAAACBP4AAAAADyBA4AAAAgT+AAAAAA8gQOAAAAIE/gAAAAAPIEDgAAACBP4AAAAADyBA4AAAAgT+AAAAAA8gQOAAAAIE/gAAAAAPIEDgAAACBP4AAAAADyBA4AAAAgT+AAAAAA8gQOAAAAIE/gAAAAAPIEDgAAACBP4AAAAADyBA4AAAAgT+AAAAAA8gQOAAAAIE/gAAAAAPIEDgAAACBP4AAAAADyBA4AAAAgT+AAAAAA8gQOAAAAIE/gAAAAAPIEDgAAACBP4AAAAADyBA4AAAAgT+AAAAAA8gQOAAAAIE/gAAAAAPIEDgAAACBP4AAAAADyBA4AAAAgT+AAAAAA8gQOAAAAIE/gAAAAAPIEDgAAACBP4AAAAADyBA4AAAAgT+AAAAAA8gQOAAAAIE/gAAAAAPIEDgAAACBP4AAAAADyBA4AAAAgT+AAAAAA8gQOAAAAIE/gAAAAAPIEDgAAACBP4AAAAADyBA4AAAAgT+AAAAAA8gQOAAAAIE/gAAAAAPIEDgAAACBP4AAAAADyBA4AAAAgT+AAAAAA8gQOAAAAIE/gAAAAAPIEDgAAACBP4AAAAADyBA4AAAAgT+AAAAAA8gQOAAAAIE/gAAAAAPIEDgAAACBP4AAAAADyBA4AAAAgT+AAAAAA8gQOAAAAIE/gAAAAAPIEDgAAACBP4AAAAADyBA4AAAAgT+AAAAAA8gQOAAAAIE/gAAAAAPIEDgAAACBP4AAAAADyBA4AAAAgT+AAAAAA8gQOAAAAIE/gAAAAAPIEDgAAACBP4AAAAADyBA4AAAAgT+AAAAAA8gQOAAAAIE/gAAAAAPIEDgAAACBP4AAAAADyBA4AAAAgT+AAAAAA8gQOAAAAIE/gAAAAAPIEDgAAACBP4AAAAADyBA4AAAAgT+AAAAAA8ibLXgAAAADUXfv02hiz+RhjjM33NsfFl55Z8oqePAIHAAAAnNKtX34fs/3ZGGOM2f58yat5Mj32wPHj3nS8+9POQ1+3vrIynp+sjhfXLozXnn5qvHVxbby5sTYurDzuFQIAAHDe3N6+Pa5+/MPB41c+enVsXN5Y4op4FN9/+N2Y7k4PHl96+9J44crlU33m9hfXx/aX24eee/2zN8bKfcFLbHQVAAAgAElEQVTg3JzBsTefj+t3/hhf7+6Pz3d2xwdbv473t26Oq3vTh78ZAAAAOHd2vrl5KHgc12xvNm58deORXrvwn6i8vD4ZG6tHt2VM52Ns7U/Hb7N7W3m+vXVnXPl5Z3yy+dx459n1RS4TAAAAOKXZn+zdfZDc913Y8c/e7d3e096znh1LtmST2I4TJ3GeDQEnJISSlIe0ZaBAOjxOk3TohHYaSqA8JkwKLRRaSgslZEobYICmQEJKghM7BBwncUzsYFuyJEuynu9x725vn/rHSXd70j3JVqx84PWa0Yx2tfu7vdP+s+/7fj/fhUZMfWEqxl4x9rSeP/3wdNRnthZInvXA8d5dQ/G8nrW/bCsiTtYa8bHZavyHM7Mx02xFvRXxb56aiuu6RuOWdZ4HAAAAfGU6d+/ZGHv5WMTTGEFx7lObj7y46Ctmi0rE0ve6q6szvmOkLz6wdzQGO5deXqXZip8/PRPGtAAAAEAuc0fmonK4csXPWzgxHzOPTG/58V9RgaPdV5WK8c5tK8fqfHpuMR43jwMAAABSGLp9aPnvE/efv+LnTzwwuXKtFwxv+vjiT5+aic/P1+JorREjnYW4racrvm6gFK8rl6K7cG2PMHlduRTvbhuU+ki1HjeV1t+mcqrejD+fWYj752rxaLUep+uN2NHVGdd3dcar+rvjNQOl2NPVueWv32hFfKJSjT+bqcYjC7U4UW/GdV0d8fyerri7XIq7+ktRiIg3HDobhxcbERFx34FtMVbcuBsttlpxz+xi3FOpxhfma3Gy3ow9XR1xoLsYXzNQiq8dKEX/GnNKAAAAWK39tJXuse645d/dunT/Uwsx+fnJmPnSTFRPL0ShsxC9u3ujfMtgjLxkJIoDWx+BMHd0LiY/NxmVx2ejeroaxXIxevb0xtBtQzH0wqHo6HoaawdaEZUnKjH9xemoHJyN6tlqFAqF6N5WioED/TF461D07e278svWWzHzyHRMf3E65o7Nx+KZanQOFKO0rRSDzyvH4G1D0T3Wvel1nvydJ+PcfUvDPa/7x8+J8bvGY+5wJc795bmoHKxEY74R2+/eHtu+bvu61xh56WhMfWEqIiLO/+X52PkNu6JY3trPvbnQXP76ERGjd47E1IOTGzwjoviBibnlG9ONiCOLjfjj6YX46v5SvG/34PI2kWthpLMj9nZ3xpEL8eBcvbnm4xZbrfgf5+fil87ORv2SfSwz1Xo8Xq3Hx2ar8b4zs/HD2wbin470bbr153S9Ge8+OR1/MVtddf/DjWY8vFCP/z05H68rl+Indw7GqXVe11oeWqjFT56ciYcWaqvun24045GFenxoeiH2dxfjJ3aW486+zd90AAAALKlXGtFqtOLkn56MUx8+edm/1yZrMf3wdJy950zs+94bonfPxsfOthqtOPnHT8WpPzt1ydepx8LJhZh8YCL6Pt4X13/X3it6nYsTi3HiD07E5Gcn1vy32Udn4uSfnIzRl47Grjftjq7hri1dt3KoEsd/71jMHZ1bdX+9Uo/qqYWY/pup6PjDE7H963fE9tdu33KYadWbce6+c/Hk7xxddX9tk+GfPTt6YvDWwZj+4nQ0a82YenAyxl49vqWvOfXFqajPLl2//4b+6N1C7OkYL3bEi3q7Ym/36pUNn6gsBYFrbbO5G/VWxI8+NR2/cGYlbgx3dsQbyj3xluHeuKt/5fSV+WYrfvbUTPzW+bl1rrZkstGMtx+fvCxu3NBdjBf0dsXwhejz0ZlqfPfRiZhvbm06yKcqi/E9RydWxY0X9HbFa8ulVYNXDy7W4/uPTcZn5mprXQYAAIA1NBcacfQDR5bjRkdPZ/Tt7bssZFTPVOPIbx2JZnWDX1a3Io7//rHL4kbXcFf039gf3SNLv5CeOzoXh37lYDQXt/aL74VTC3Hwlx9fFTe6hrti8NbBGLxlMLqGVmLG+b8+Hwf/0+NRPVNd61KrTD00FQd/+fFVcaNnZ08M3T4UAzcNREf30ufYZq0ZJ//4qTj6/k2+/zbn/+r8ZXEjImKzTR+tRmvV6Sln7z0brS1+fj7fNlx07NXj0Wps/rziPQe2xcW0cXCxHu85NRufrCz98D44OR9vHe2LG7qvzekl041mHL2weiMi1tz68btT8/Gh6YWIiCgWIt69YzDeNNQTPW0/6ZP1Rvzcqdn4yMzS4953ZibeMFiKncW1t6v8ytlKPDi/EhfeOtoX3zXSF7subG+ptVpx/1wtfuHMbPzNwtYixNFaI955YioqF/4zv6HcEz+8bSCubwtLj1Xr8Z7TM3FfZTHmm634sZPT8cF9o1G2XQUAAGBLJu6fiNK2Uux68+4YvGVw+YN9faYepz56Ks587HRELA2wnHpoKkZeMrLmdSY/PxlnP7GyRWLwlsHY9abdS7GkEBGtiPkT83Hqwydj8nMbb524qFltxtHfOhLV00ufubtHumPPW66LwVsGo1Bc+tzXqjVj6qGpOPa7x6I+s7RS5Oj7j8T+tx9Y/l4utXByIY785uFo1paCxcCBgdj9zXui7/q+5ZNL6pV6nLv3XDz1oRNL39/nJqNrqCv2fNt1m77u+WPzy9cde9VYlLb3RKGzEIWujT+rNmvNKN86GF3DXVGbrMX8sfmYe6IS/fsHNnze/PH5mPnbmYiI6OztjKHnD0VtevPP3h3tH/H3dxfjPbsGl1coRMQ1XUXwsdnFVbdvvmT+RisifvP8yiTWd20vxz8a7l0VNyIidhY746d3DcZ1FwJFvRXx5zNrF7DHq/X47bZtO28bH4h/vb28HDciIroKhXhlf3f8+nM2H3Jy0S+cno3zjaU32+vKpXjv7sFVcSMi4qZSMX5x93AcuPB9PrFYjz+9EG8AAADYmgPvOBDDLxxeFQSK5WLs/odL0eOi9U7oaNVb8dQfnVi+PXjrYOz7vhui97relaNOCxG9e3pj7/fsi9GXjW7pdZ2558zyCotiuRg3vm1/DN0+tBw3IiIKXR0x/KKR2P/PD0Rn79JnxsoTlVWxZfWLXVppcnEFycDN5bjhB29cmt/R9tG42F+MHa/fEdd/x/Urr+cvzsTs41vbubH9tdtj/zsOxMido0urYq7rjZ4dPRs+p9VoRUdXR4zftbIt5fxfbz5sdPKBldUtY68ai86+zi2t4Lgs/4wVO+LryyvbOh67RieXPFqtx8+fnlm+/cLerssCR7XViu8c6Yt37SjHu3aU4+vL6/9wyx2F+MbBlX8/0rYypN2ftYWP/d3F+N6x9ff5jHR2xI/tKG/6vTy8UIsPz6yEih/ZVl53gOtgZyF+YKx/+fYfTs1ven0AAACW3PADN0bXyNrzDAsdhRh+8cqKjcrBtY8unXl0JqpnVz4b7v6WPevOqyh0FmLXm3Zv+roaC4048/HTK9d88+4NA0Hvdb2x8407l2+f+YvTa24pqRyuxMwjK5+d93zrnujsWf9wjdGXj606keTcJ9cJJ5fY9U27o3CFuwsuRonhF638zM9/+nzUptZfSNGYb8S5+1a2p4y8ZCketS4duLmGNf+Hrm9brTDZ2PoAzWeiGUtbUr5Urcd/PVeJbz9yfnnFQ7EQ8a+2ly97sT2FQnzXSN/yn/FNTi/Z0fbvp9cZDHpPZeVN/G1rrAa51Cv7Nx8Eem9lZSXKNw72XLZy41Ivbxsu+tn5Wkw9S/8HAAAA2Q1ssv2he3Tl89bixOKagx8rbasahm4f2nSlQvvcjPVUDlWifmEoZ7G/GMN3rL01pt3InaPLYaU2WYvKE5cHmZmHV1ahDN8xvOng1CjEqhUVEw9MLA/z3PBpnVc+OuFilChtK8XwHUtRpdVobXgayvQXp6NeWXo95a8qL62aidjaDI617uxtqzLzra0NANmqbz58bvMHtSkWIt6zayhe1Lu1qbERERONZjxVa0al2Yxaa+X9+kdt2z3qa7yLZ5qtVbM37riCr7mRT7UFjpdt4WSU8WJHjBc74uyFCPNkrRFD1/A0GwAAgL8r2rettBqtaNWbUbhkdUbl0EpIKH/V5qv2t2Lu8MoohMHnD0ZHafPPeMWBYpSfV14+anXuyFyUn7v69cw8uhJj2rffbKT/xv4odBaWo8H88fkNv8/y857ez6DVtrBg9BVjy7NKzt57NsZePb7mipBz7cNFX7UyoHQrKzg2nR56dfPGlXlVf3f8yPZyPLe0+ZDTc/Vm/J/phfjQ9Hw8vPD0ttVMXLJSon3uxjPxaNs2n3efnI53n1x7n9d6Zrc4ZRYAAIAr04pVoyoiYumkk4u6x0txNSyeW9kt0Lt7k1UWbXqv61sOHO3XiIilQadProST0vatvdaO7o7o29cflYNLcaQ2ufHszf4bN14Vs55mW5Qo31yO0rZSVM9UY+HEQlQer8TAzauvO39sPmYfXdpuUywXY/DWobZrbb6z4Zocj/LyNVYxFAsRo50dMVbsiBu6i3FnX1fs6y5e9kZby0dnqvHjJ6eXt7Q8XZce99p3FU4vqbZaz/h1LQgcAAAAz4pWs7W8lSQiorPn6qymb98G0tm39V+mF/tXHnvpVpLmYnPV8bQXh5JuRdfgSg5ozG28SOBKZ29c1L7qolAsxNirx+PEHxyPiIjzf3XussAx8ZmVAaTjd42vWuXytLeofDn9wb6xeF7P1fuy98xW4+3HV/bvvKq/O94y3Bu3lLpivNgRPR2F5dkd/2tyPn7iClZPXI3DWWuX/B/0dhTijRsMQ13LiO0pAAAAuX05fm/9lf678EtGXoy8aLgtcJyPXd+0O7qGl0ZDNOYbq7anjLz4kpNptvC9XpMVHFdLtdWKnzq1Mi32B8b64x3jA/E0Zp9ExOrZIxERc81WDDzDVRy9HYUoFpaOpo2I+G/PGYkXX6XZHgAAAFxdhY5CFMvF5VUcjTVOLnk6iuX2FRNrn+q5lnrbY4sDqz/Cd5Q6oqOrI5q1pdfYWNj6a121SqXv2UkDXSPdMfqy0Tj/V0srNSY/PxnbXrMtIiKmH5pa/rkM3T4UpR1XvjUo9dKAB+drcay29AMYL3bED431P+24EbG0RabdU7Wtv+nW0xkRe7tW3izH1jmeFgAAgK8MPTtXVt0vnlvc4JFb1356y8LJhQ0eudr88fk1rxEREYVYPmUkIqJ65pIZHeto1poxd2RldsdWToG5WkZftrIy4+wnzy5tPWlFnG07GnbsFWNrPXVTqQPHsbYA8bxSV/Rsstriw9Mbv4kGOgqrTmv5wsLGg1a26hVtR8neW9naGw4AAIBro//G/uW/zz42u8Ejt65v38o1px6aWjU7Yz2NucaqY2D79vZf9piBttNP2h+7kbkn5pZXfUSsjiRfbv0HBqLnwpDV6qmFmH1sNuaenFseeNo91n3ZSTFblTpwtM8YOVVvbLglpxURn57bvLy9ZmBlGczvT87H4ibH5N5X2fyar2wLHB+aXojHq5uf8rLYal2VFSQAAABcmYGbVz5gTz04uenKiPbtHuvpv7F/eYtJfaYeUw9ObfqciQcmlkNIsVyMvhv6LntM+9GwEw9MrDoBZj3n7ju7/PfhO4Yv2/ry5VToKMT4XePLt89/+lxMfGZi+fb4XeOXHdu7VakDx562Y1wfrdbjs/Nrr7hoRMR/PltZfd863eL1bQNAv1Stx/vPz639wFg6mvan22aArOeu/u5VR93+5KmZmN7gZJVaqxU/f3o2vv3IRHxm7uqsIgEAAGBrBg4MLG9TaTVaceIPT6w6EaRdq96K4793bNNrdvZ2xrav3bZ8+8QfHd8wnCw8tRAn/+9Ty7e33709OnsuPyWl/4b+KLet4jj+e8c3XB0y8ZmJmHigLSh89bZ1H/vlMvzC4ei4EDEmPjMR5+5tDy4jT/u6qQPHi/q6Yldb5Hjnian4fzPV5WNVF1qtuH9uMf7F8cn4pbOrlxWdXecM3b3dnfF9YyvLft53ZjZ+8cxsnG57fKO1tHLjrU9OrHWJy3QVCvGuHStvuL+eW4zvPzYZD8zXov1VtCLi4YVavOP4VHxgYi5O1hvxS2dn140xAAAAXH2FzkLsevPu5dtTD07G4d94IhaeWr06Yv7YfBz+jSdWBYONbPua7dF3/dIqjNpkLQ796sGYfng6Ws2VD32tRiumHpqKQ796MOqVpZUhfXv7YvyudUJEIWLPt14XHd1LH+9nHpmOJ3790KrZHRFLp5Sc+fjpOPrbR5bvG/+abTFw0+qjWp8NxXIxRl++MovjYpAZuXM0use613va5td9xq/sGuopFOJHt5fjbReOiX2q1lj++3ixY92IERHxZK0RzVi78HzfaH98fr4W91/Y0vJr5yrxa+cqcVOpGD2FQhxarEeleWXV4aV93fFTOwfjxy4cU/v5+Vp8x5Hzsa+7M55b6opWRBxcrK/avnKgVIz37hp8RoNTAQAAuHJDtw3F9ru3x+k/Px0REVNfmIqpL0xF91h3dA11RfVMdXlrStdwV9QmN19939HTEdd/99544r8ciuqZalTPVOPQrx6M7rHu6N2zNJdi/sn5WJxYGYVQ2tETe797X3SU1l+f0LO7J/a+dV8c+Y3D0aw1Y+aRmfjbR74UvXt6o7S9FI2FZswdrkRjfmUMwtDtQ7Hrm3Y9nR/NVTFy52ic/eTZVfe1R4+nI/UKjoiI15ZL8e93D0X5kgGj7XGj3FGI9+wajP+5d+WHNdloxpHFtfdJDXYW4j/uGVq1XSUi4rFqPR5aqC3HjdcMlOID12/9P+Atw73x358zEje1bVc5vNiID88sxEdmVs/meEO5J37zOSOrVqgAAADwLClE7Hrz7tj5xtURYPHcYlQOVZbjRs/u3rjxh/bH0O1DW7psz46e2P/2AzF8x/Cqa14MKO1xY/jFI3HgbfujtH3zI1OHnj8U+99+YHmFSMTSCSyTn5uMmUeml+NGobMQO16/M/a+dd+aW16eLf039K8avNqzs+cZryZJvYLjom8c7Ik7erviIzPVuLdSjUOLjai3WrG/uxhfPVCKfzDYE9uLHTHfbMUPjvUvDyOd3mDvx2hnR/zinqG4t9ITH5muxkMLtThZb8aero64vacrvm6gFHcNlNaNJOt5VX93/O6+0fjE7GJ8qlKNLy7U48laI0qFiOu6OuMlfd3xmoFSvLC3KyzcAAAAuHYKHYXY+cadMXT7UEw8MBGzj81G9fRCdA12Rc/u3hi8dTCG7xiOju6OKJa3/vG6e7Q79v2zG6JyaDamH56OysFKVM8uzeMojZeif39/DN46FP039MeVfDDsv7E/bvrhm2L6kZmYfng65p+ci8Wzi9HZ1xmlbaUoP7ccg7cNbSmYfNkVIsZfPRZHDy/Nyxy/azwKm5yMuuklZ+9+qQkPz8DDC7X4lsPnl2/ff/P2y1aTAMDfN//kbbs3fxAAwFWUfovKtXaqbSvMjmJHDIgbAAAA8KwTONbQjIg/md787OCIiI/Prhzr88r+km0lAAAAcA0IHGv4nYm5+JcnpuL9E3Ox0f6d++cW44OTK0fvvL78FbCPCQAAAP4e+jsxZPRqmmg0431nZiMi4mdPzcTj1Xp850hf3Nx28kml2YqPzizEz5yaWb7v7oFS3NUvcAAAAMC1IHBcYqSzI35u12C888RU1FsRH5ycjw9Ozsf+7mLcWOqM6UYrHl6oxUxzZW3H9d2d8eM7B6PT/hQAAAC4JgSONbyh3BO7ru+M956eic/O1yIi4uBiPQ6ucSTsG8o98W93lGO8aLcPAAAAXCsCxzpe0NsVv713NB6YW4z7Kovx2flaPFatx0BHIfZ2d8ZtPV1xd7kUt/V0GWQCAAAA15jAsYHOiHhpX3e8tK/7Wr8UAAAAYAMWHwAAAADpCRwAAABAegIHAAAAkJ7AAQAAAKQncAAAAADpCRwAAABAegIHAAAAkJ7AAQAAAKQncAAAAADpCRwAAABAegIHAAAAkJ7AAQAAAKQncAAAAADpCRwAAABAegIHAAAAkJ7AAQAAAKQncAAAAADpCRwAAABAegIHAAAAkJ7AAQAAAKQncAAAAADpCRwAAABAegIHAAAAkJ7AAQAAAKQncAAAAADpCRwAAABAegIHAAAAkJ7AAQAAAKQncAAAAADpCRwAAABAegIHAAAAkJ7AAQAAAKQncAAAAADpCRwAAABAegIHAAAAkJ7AAQAAAKQncAAAAADpCRwAAABAegIHAAAAkJ7AAQAAAKQncAAAAADpCRwAAABAegIHAAAAkJ7AAQAAAKQncAAAAADpCRwAAABAegIHAAAAkJ7AAQAAAKQncAAAAADpCRwAAABAegIHAAAAkJ7AAQAAAKQncAAAAADpCRwAAABAegIHAAAAkJ7AAQAAAKQncAAAAADpCRwAAABAegIHAAAAkJ7AAQAAAKQncAAAAADpCRwAAABAegIHAAAAkJ7AAQAAAKQncAAAAADpCRwAAABAegIHAAAAkJ7AAQAAAKQncAAAAADpCRwAAABAegIHAAAAkJ7AAQAAAKQncAAAAADpCRwAAABAegIHAAAAkJ7AAQAAAKQncAAAAADpCRwAAABAegIHAAAAkJ7AAQAAAKQncAAAAADpCRwAAABAegIHAAAAkJ7AAQAAAKQncAAAAADpCRwAAABAegIHAAAAkJ7AAQAAAKQncAAAAADpCRwAAABAegIHAAAAkJ7AAQAAAKQncAAAAADpCRwAAABAegIHAAAAkJ7AAQAAAKQncAAAAADpCRwAAABAegIHAAAAkJ7AAQAAAKQncAAAAADpCRwAAABAegIHAAAAkJ7AAQAAAKQncAAAAADpCRwAAABAegIHAAAAkJ7AAQAAAKQncAAAAADpCRwAAABAegIHAAAAkJ7AAQAAAKQncAAAAADpCRwAAABAegIHAAAAkJ7AAQAAAKQncAAAAADpCRwAAABAegIHAAAAkJ7AAQAAAKQncAAAAADpCRwAAABAegIHAAAAkJ7AAQAAAKQncAAAAADpCRwAAABAegIHAAAAkJ7AAQAAAKQncAAAAADpCRwAAABAegIHAAAAkJ7AAQAAAKQncAAAAADpCRwAAABAegIHAAAAkJ7AAQAAAKQncAAAAADpCRwAAABAegIHAAAAkJ7AAQAAAKQncAAAAADpCRwAAABAegIHAAAAkJ7AAQAAAKQncAAAAADpCRwAAABAegIHAAAAkJ7AAQAAAKQncAAAAADpCRwAAABAegIHAAAAkJ7AAQAAAKQncAAAAADpCRwAAABAegIHAAAAkJ7AAQAAAKQncAAAAADpCRwAAABAegIHAAAAkJ7AAQAAAKQncAAAAADpCRwAAABAegIHAAAAkJ7AAQAAAKQncAAAAADpCRwAAABAegIHAAAAkJ7AAQAAAKQncAAAAADpCRwAAABAegIHAAAAkJ7AAQAAAKQncAAAAADpCRwAAABAegIHAAAAkJ7AAQAAAKQncAAAAADpCRwAAABAegIHAAAAkJ7AAQAAAKQncAAAAADpCRwAAABAegIHAAAAkJ7AAQAAAKQncAAAAADpCRwAAABAegIHAAAAkJ7AAQAAAKQncAAAAADpCRwAAABAegIHAAAAkJ7AAQAAAKQncAAAAADpCRwAAABAegIHAAAAkJ7AAQAAAKQncAAAAADpCRwAAABAegIHAAAAkJ7AAQAAAKQncAAAAADpCRwAAABAegIHAAAAkJ7AAQAAAKQncAAAAADpCRwAAABAegIHAAAAkJ7AAQAAAKQncAAAAADpCRwAAABAegIHAAAAkJ7AAQAAAKQncAAAAADpCRwAAABAegIHAAAAkJ7AAQAAAKQncAAAAADpCRwAAABAegIHAAAAkJ7AAQAAAKQncAAAAADpCRwAAABAegIHAAAAkJ7AAQAAAKQncAAAAADpCRwAAABAegIHAAAAkJ7AAQAAAKQncAAAAADpCRwAAABAegIHAAAAkJ7AAQAAAKQncAAAAADpCRwAAABAegIHAAAAkJ7AAQAAAKQncAAAAADpCRwAAABAegIHAAAAkJ7AAQAAAKQncAAAAADpCRwAAABAegIHAAAAkJ7AAQAAAKQncAAAAADpCRwAAABAegIHAAAAkJ7AAQAAAKQncAAAAADpCRwAAABAegIHAAAAkJ7AAQAAAKQncAAAAADpCRwAAABAegIHAAAAkJ7AAQAAAKQncAAAAADpCRwAAABAegIHAAAAkJ7AAQAAAKQncAAAAADpCRwAAABAegIHAAAAkJ7AAQAAAKQncAAAAADpCRwAAABAegIHAAAAkJ7AAQAAAKQncAAAAADpCRwAAABAegIHAAAAkJ7AAQAAAKQncAAAAADpCRwAAABAegIHAAAAkJ7AAQAAAKQncAAAAADpCRwAAABAegIHAAAAkJ7AAQAAAKQncAAAAADpCRwAAABAegIHAAAAkJ7AAQAAAKQncAAAAADpCRwAAABAegIHAAAAkJ7AAQAAAKQncAAAAADpCRwAAABAegIHAAAAkJ7AAQAAAKQncAAAAADpCRwAAABAegIHAAAAkJ7AAQAAAKQncAAAAADpCRwAAABAegIHAAAAkJ7AAQAAAKQncAAAAADpCRwAAABAegIHAAAAkJ7AAQAAAKQncAAAAADpCRwAAABAegIHAAAAkJ7AAQAAAKQncAAAAADpCRwAAABAegIHAAAAkJ7AAQAAAKQncAAAAADpCRwAAABAegIHAAAAkJ7AAQAAAKQncAAAAADpCRwAAABAegIHAAAAkJ7AAQAAAKQncAAAAADpCRwAAABAegIHAAAAkJ7AAQAAAKQncAAAAADpCRwAAABAegIHAAAAkJ7AAQAAAKQncAAAAADpCRwAAABAegIHAAAAkJ7AAQAAAKQncAAAAADpCRwAAABAegIHAAAAkJ7AAQAAAKQncAAAAADpCRwAAABAegIHAAAAkJ7AAQAAAKQncAAAAADpCRwAAABAegIHAAAAkJ7AAQAAAKQncAAAAADpCRwAAABAegIHAAAAkH+/DMAAACAASURBVJ7AAQAAAKQncAAAAADpCRwAAABAegIHAAAAkJ7AAQAAAKQncAAAAADpCRwAAABAegIHAAAAkJ7AAQAAAKQncAAAAADpCRwAAABAegIHAAAAkJ7AAQAAAKQncAAAAADpCRwAAABAegIHAAAAkJ7AAQAAAKQncAAAAADpCRwAAABAegIHAAAAkJ7AAQAAAKQncAAAAADpCRwAAABAegIHAAAAkJ7AAQAAAKQncAAAAADpCRwAAABAegIHAAAAkJ7AAQAAAKQncAAAAADpCRwAAABAegIHAAAAkJ7AAQAAAKQncAAAAADpCRwAAABAegIHAAAAkJ7AAQAAAKQncAAAAADpCRwAAABAegIHAAAAkJ7AAQAAAKQncAAAAADpCRwAAABAegIHAAAAkJ7AAQAAAKQncAAAAADpCRwAAABAegIHAAAAkJ7AAQAAAKQncAAAAADpCRwAAABAegIHAAAAkJ7AAQAAAKQncAAAAADpCRwAAABAegIHAAAAkJ7AAQAAAKQncAAAAADpCRwAAABAegIHAAAAkJ7AAQAAAKQncAAAAADpCRwAAABAegIHAAAAkJ7AAQAAAKQncAAAAADpCRwAAABAegIHAAAAkJ7AAQAAAKQncAAAAADpCRwAAABAegIHAAAAkJ7AAQAAAKQncAAAAADpCRwAAABAegIHAAAAkJ7AAQAAAKQncAAAAADpCRwAAABAegIHAAAAkJ7AAQAAAKQncAAAAADpCRwAAABAegIHAAAAkJ7AAQAAAKQncAAAAADpCRwAAABAegIHAAAAkJ7AAQAAAKQncAAAAADpCRwAAABAegIHAAAAkJ7AAQAAAKQncAAAAADpCRwAAABAegIHAAAAkJ7AAQAAAKQncAAAAADpCRwAAABAegIHAAAAkJ7AAQAAAKQncAAAAADpCRwAAABAegIHAAAAkJ7AAQAAAKQncAAAAADpCRwAAABAegIHAAAAkJ7AAQAAAKQncAAAAADpCRwAAABAegIHAAAAkJ7AAQAAAKQncAAAAADpCRwAAABAegIHAAAAkJ7AAQAAAKQncAAAAADpCRwAAABAegIHAAAAkJ7AAQAAAKQncAAAAADpCRwAAABAegIHAAAAkJ7AAQAAAKQncAAAAADpCRwAAABAegIHAAAAkJ7AAQAAAKQncAAAAADpCRwAAABAegIHAAAAkJ7AAQAAAKQncAAAAADpCRwAAABAegIHAAAAkJ7AAQAAAKQncAAAAADpCRwAAABAegIHAAAAkJ7AAQAAAKQncAAAAADpCRwAAABAegIHAAAAkJ7AAQAAAKQncAAAAADpCRwAAABAegIHAAAAkJ7AAQAAAKQncAAAAADpCRwAAABAegIHAAAAkJ7AAQAAAKQncAAAAADpCRwAAABAegIHAAAAkJ7AAQAAAKQncAAAAADpCRwAAABAegIHAAAAkJ7AAQAAAKQncAAAAADpCRwAAABAegIHAAAAkJ7AAQAAAKQncAAAAADpCRwAAABAegIHAAAAkJ7AAQAAAKQncAAAAADpCRwAAABAegIHAAAAkJ7AAQAAAKQncAAAAADpCRwAAABAegIHAAAAkJ7AAQAAAKQncAAAAADpCRwAAABAegIHAAAAkJ7AAQAAAKQncAAAAADpCRwAAABAegIHAAAAkJ7AAQAAAKQncAAAAADpCRwAAABAegIHAAAAkJ7AAQAAAKQncAAAAADpCRwAAABAegIHAAAAkJ7AAQAAAKQncAAAAADpCRwAAABAegIHAAAAkJ7AAQAAAKQncAAAAADpCRwAAABAegIHAAAAkJ7AAQAAAKQncAAAAADpCRwAAABAegIHAAAAkJ7AAQAAAKQncAAAAADpCRwAAABAegIHAAAAkJ7AAQAAAKQncAAAAADpCRwAAABAegIHAAAAkJ7AAQAAAKQncAAAAADpCRwAAABAegIHAAAAkJ7AAQAAAKQncAAAAADpCRwAAABAegIHAAAAkJ7AAQAAAKQncAAAAADpCRwAAABAegIHAAAAkJ7AAQAAAKQncAAAAADpCRwAAABAegIHAAAAkJ7AAQAAAKQncAAAAADpCRwAAABAegIHAAAAkJ7AAQAAAKQncAAAAADpCRwAAABAegIHAAAAkJ7AAQAAAKQncAAAAADpCRwAAABAegIHAAAAkJ7AAQAAAKQncAAAAADpCRwAAABAegIHAAAAkJ7AAQAAAKQncAAAAADpCRwAAABAegIHAAAAkJ7AAQAAAKQncAAAAADpCRwAAABAegIHAAAAkJ7AAQAAAKQncAAAAADpCRwAAABAegIHAAAAkJ7AAQAAAKQncAAAAADpCRwAAABAegIHAAAAkJ7AAQAAAKQncAAAAADpCRwAAABAegIHAAAAkJ7AAQAAAKQncAAAAADpCRwAAABAegIHAAAAkJ7AAQAAAKQncAAAAADpCRwAAABAegIHAAAAkJ7AAQAAAKQncAAAAADpCRwAAABAegIHAAAAkJ7AAQAAAKQncAAAAADpCRwAAABAegIHAAAAkJ7AAQAAAKQncAAAAADpCRwAAABAegIHAAAAkJ7AAQAAAKQncAAAAADpCRwAAABAegIHAAAAkJ7AAQAAAKQncAAAAADpCRwAAABAegIHAAAAkJ7AAQAAAKQncAAAAADpCRwAAABAegIHAAAAkJ7AAQAAAKQncAAAAADpCRwAAABAegIHAAAAkJ7AAQAAAKQncAAAAADpCRwAAABAegIHAAAAkJ7AAQAAAKQncAAAAADpCRwAAABAegIHAAAAkJ7AAQAAAKQncAAAAADpCRwAAABAegIHAAAAkJ7AAQAAAKQncAAAAADpCRwAAABAegIHAAAAkJ7AAQAAAKQncAAAAADpCRwAAABAegIHAAAAkJ7AAQAAAKQncAAAAADpCRwAAABAegIHAAAAkJ7AAQAAAKQncAAAAADpCRwAAAD8f/buPM7uuj70//t7llmzbyQBEsIuO4hKQAEBqWCrtVerv96fvbRVsQt629pb6/V2udW29tbb29LaVmtL6+1uW5cqAoKgsoiAyC6LIRCyk5BttrN87x+HQGbOmclMMpk5n8nz+XjkD5LJnO9MmO/5fl/fzwLJEzgAAACA5AkcAAAAQPIEDgAAACB5AgcAAACQPIEDAAAASJ7AAQAAACRP4AAAAACSJ3AAAAAAyRM4AAAAgOQJHAAAAEDyBA4AAAAgeQIHAAAAkDyBAwAAAEiewAEAAAAkT+AAAAAAkidwAAAAAMkTOAAAAIDkCRwAAABA8gQOAAAAIHkCBwAAAJA8gQMAAABInsABAAAAJE/gAAAAAJIncAAAAADJEzgAAACA5AkcAAAAQPIEDgAAACB5AgcAAACQPIEDAAAASJ7AAQAAACRP4AAAAACSJ3AAAAAAyRM4AAAAgOQJHAAAAEDyBA4AAAAgeQIHAAAAkDyBAwAAAEiewAEAAAAkT+AAAAAAkidwAAAAAMkTOAAAAIDkCRwAAABA8gQOAAAAIHkCBwAAAJA8gQMAAABInsABAAAAJE/gAAAAAJIncAAAAADJEzgAAACA5AkcAAAAQPIEDgAAACB5AgcAAACQPIEDAAAASJ7AAQAAACRP4AAAAACSJ3AAAAAAyRM4AAAAgOQJHAAAAEDyBA4AAAAgeQIHAAAAkDyBAwAAAEiewAEAAAAkT+AAAAAAkidwAAAAAMkTOAAAAIDkCRwAAABA8gQOAAAAIHkCBwAAAJA8gQMAAABInsABAAAAJE/gAAAAAJIncAAAAADJEzgAAACA5AkcAAAAQPIEDgAAACB5AgcAAACQPIEDAAAASJ7AAQAAACRP4AAAAACSJ3AAAAAAyRM4AAAAgOQJHAAAAEDyBA4AAAAgeQIHAAAAkDyBAwAAAEiewAEAAAAkT+AAAAAAkidwAAAAAMkTOAAAAIDkCRwAAABA8gQOAAAAIHkCBwAAAJA8gQMAAABInsABAAAAJE/gAAAAAJIncAAAAADJEzgAAACA5AkcAAAAQPIEDgAAACB5AgcAAACQPIEDAAAASJ7AAQAAACRP4AAAAACSJ3AAAAAAyRM4AAAAgOQJHAAAAEDyBA4AAAAgeQIHAAAAkDyBAwAAAEiewAEAAAAkT+AAAAAAkidwAAAAAMkTOAAAAIDkCRwAAABA8gQOAAAAIHkCBwAAAJA8gQMAAABInsABAAAAJE/gAAAAAJIncAAAAADJEzgAAACA5AkcAAAAQPIEDgAAACB5AgcAAACQPIEDAAAASJ7AAQAAACRP4AAAAACSJ3AAAAAAyRM4AAAAgOQJHAAAAEDyBA4AAAAgeQIHAAAAkDyBAwAAAEiewAEAAAAkT+AAAAAAkidwAAAAAMkTOAAAAIDkCRwAAABA8gQOAAAAIHkCBwAAAJA8gQMAAABInsABAAAAJE/gAAAAAJIncAAAAADJEzgAAACA5AkcAAAAQPIEDgAAACB5AgcAAACQPIEDAAAASJ7AAQAAACRP4AAAAACSJ3AAAAAAyRM4AAAAgOQJHAAAAEDyBA4AAAAgeQIHAAAAkDyBAwAAAEiewAEAAAAkT+AAAAAAkidwAAAAAMkTOAAAAIDkCRwAAABA8gQOAAAAIHkCBwAAAJA8gQMAAABInsABAAAAJE/gAAAAAJIncAAAAADJEzgAAACA5AkcAAAAQPIEDgAAACB5AgcAAACQPIEDAAAASJ7AAQAAACRP4AAAAACSJ3AAAAAAyRM4AAAAgOQJHAAAAEDyBA4AAAAgeQIHAAAAkDyBAwAAAEiewAEAAAAkT+AAAAAAkidwAAAAAMkTOAAAAIDkCRwAAABA8gQOAAAAIHkCBwAAAJA8gQMAAABInsABAAAAJE/gAAAAAJIncAAAAADJEzgAAACA5AkcAAAAQPIEDgAAACB5AgcAAACQPIEDAAAASJ7AAQAAACRP4AAAAACSJ3AAAAAAyRM4AAAAgOQJHAAAAEDyBA4AAAAgeQIHAAAAkDyBAwAAAEiewAEAAAAkT+AAAAAAkidwAAAAAMkTOAAAAIDkCRwAAABA8gQOAAAAIHkCBwAAAJA8gQMAAABInsABAAAAJE/gAAAAAJIncAAAAADJEzgAAACA5AkcAAAAQPIEDgAAACB5AgcAAACQPIEDAAAASJ7AAQAAACRP4AAAAACSJ3AAAAAAyRM4AAAAgOQJHAAAAEDyBA4AAAAgeQIHAAAAkDyBAwAAAEiewAEAAAAkT+AAAAAAkidwAAAAAMkTOAAAAIDkCRwAAABA8gQOAAAAIHkCBwAAAJA8gQMAAABInsABAAAAJE/gAAAAAJIncAAAAADJEzgAAACA5AkcAAAAQPIEDgAAACB5AgcAAACQPIEDAAAASJ7AAQAAACRP4AAAAACSJ3AAAAAAyRM4AAAAgOQJHAAAAEDyBA4AAAAgeQIHAAAAkDyBAwAAAEiewAEAAAAkT+AAAAAAkidwAAAAAMkTOAAAAIDkCRwAAABA8gQOAAAAIHkCBwAAAJA8gQMAAABInsABAAAAJE/gAAAAAJIncAAAAADJEzgAAACA5AkcAAAAQPIEDgAAACB5AgcAAACQPIEDAAAASJ7AAQAAACRP4AAAAACSJ3AAAAAAyRM4AAAAgOQJHAAAAEDyBA4AAAAgeQIHAAAAkDyBAwAAAEiewAEAAAAkT+AAAAAAkidwAAAAAMkTOAAAAIDkCRwAAABA8gQOAAAAIHnZqk/uyqf7IAAAAAAOhhEcAAAAQPIEDgAAACB5AgcAAACQPIEDAAAASJ7AAQAAACRP4AAAAACSJ3AAAAAAyRM4AAAAgOQJHAAAAEDyBA4AAAAgeQIHAAAAkDyBAwAAAEiewAEAAAAkT+AAAAAAkidwAAAAAMkTOAAAAIDkCRwAAABA8gQOAAAAIHkCBwAAAJA8gQMAAABInsABAAAAJE/gAAAAAJIncAAAAADJEzgAAACA5AkcAAAAQPJK030AAADAgSkVIsqFiFIhi2IhophFFF78lUVElk33EQL7k+cReUTU88avWh5Rq0dU63lU6hHV+nQfYToEDgAASEC5ENFVyqKzGNFRjOgoZgIGzGiNH/A8jxiq5TFUixisRQxUG+GDZgIHAAC0oUIW0VPKorvcCBslk8vhsJRlEZ2lLDpLEbMbvxPVeiN09Fci+qp51PNpPsg2IXAAAECbyCKityOL3nJET9nwDKC1UiFiVkcWszoiIrLoq+SxpxKxZyiPw7l1CBwAADDNOosRszuymNVh2gkwcT3lLHrKEYu6s9g9lMeuoTwGa9N9VFNP4AAAgGnSU85iTkdEt9EawCTIsojZnVnM7syiv5LHzqGIvsrhM6ZD4AAAgCnWW85ibmdjXj3AodBdbqzhM1iN2DEYsecwCB0CBwAATJHuUsS8riy6hA1ginSWslhSihioRrwwkEd/dbqP6NAROAAA4BArFiIWdDXW2ACYDl2lLJbOaqzRsX0gj+oM3GpW4AAAgENoTkcWC7otHgq0h1kdWfSWs9g2kMfOwZk1bUXgAACAQ6BUiFjYndnuFWg7WdY4P3WXIp7vnzmjOQQOAACYZL3lLBb1ZFHQNoA21lNurAn0fF8eu2fAIqSF6T4AAACYSRZ0ZbGkV9wA0lDIIhb3ZrGgK/2TlhEcAAAwCQpZxOIeU1KANM3tyqJcjNjSl0c90cEcRnAAAMBBKhcils0SN4C09ZSzWDYri3KipSDRwwYAgPbQWYpYNqsQHUVxA0hfRzGLZbMK0ZXgfA+BAwAADlB3KWJZbyGKrqqBGaRYiFjaW4juxCKHUzEAAByA7lLEEb2FyAzcAGagLGuc41KKHAIHAABMUKe4ARwG9kaOVKarCBwAADAB5ULEET3iBnB4yLKIJT2FJBYeTeAQAQCgPRSyiCW9mTU3gMNKsdA49xXaPOw6NQMAwDgt7snslgIcljqKWSzuae/zn8ABAADjsKAri55ye1/cAxxKPeUsFnS173lQ4AAAgP3oLWcxt40v6gGmytyuLGa1aewVOAAAYAylQsSiNh+WDTCVFvZkUWrDmtCGhwQAAO1jYXf7L6wHMJUKWePc2G4EDgAAGMWcDutuALTSU85iTmd7nR8FDgAAaKFYiFjQhk8oAdrFgq72mqrSRocCAADtY0FXFpm+ATCqLIuY30YLMJem+wAA4GAtn5XF6YuLsagni95yY8hkpR7RV8lj11DEU9vr8eCWWlTr032kQCq6SxGzOtrnoh2gXc3qyGL3UB791ek+EoEDgARdtKIYFxxVirOPKMSx8wrjenIwVIvYsLseD26px3c21OLmp6uxfnc+BUcLpGheGz2RBGh387qy6G+D66ps1Sd3Tf9RAMB+nLa4EG8/uRyXHVOKZbMO/sZjqBbxnQ21uP6pavzzYxWjO4CX9JazWNIrcABMxOY9eeypTG9eEDjawJ+/sSsW9WQxVIv42O2D8fBWV9kAe62aV4j/+qqOuOLY0iFbxGrtjnr8+Xcr8U+PVg7NCwBJWT4ri86SwAEwEYPVfNpHxwocbeD2d/W+9DRy45483nt9fzy0ReQADm8LurO45pUd8baTS9E7RVs0PrC5HtfeOxQ3P90Gk0iBadFTzuIIozcADsimPXn0TeMoDruotJmlvVl8+oruOH2xfxrg8PXTZ5bjxnf0xH85vTzhuJFHxI7BPAYOoFGcsaQQn7qiK/76Td2xYo7zMByO5nRM9xFMrfldWXQUp/51e8vZlMVrYOpM9znUCI42sO8Ijr027cnj6q/2xwObjeQADh+lQsTHLuqMt59cHtfHP7uzHnetr8UjW+uxcXce63bV4wcv1F9axXv5rCxWzi3E8llZHDWnEK9ZXoyzlhSjaxxLbG/YnccHbxmIO5+rHcRXBKSksxixfPbMj5tzOrO4dGUxzj+yGKctLkZ/NY97N9bj1meqcfu6Q3vOe9WyYvzQqlK8enkhavWIX7p5MNbscL0LM8n6XfUYnKbLJ4GjDbQKHBERm/sa01VEDuBwcERvFn90WVe8evnYjxKf3F6P256pxVd/UI17N0783XN+VxZXHleKi1YU47VHlcaMHXsqeXz09iFrc8BhYmF3FnM6Z+aogp5yxCUrS3HBkcU4Y4zQu7kvj+9sqMXXnq5O2jXokp4s3nR8KS48utg0Ou6vHqjE3z3sHAszya7BPLb2T09mEDjawGiBIyJiS18eV391IO7f5AkiMHOddUQx/vCyzlg5xrSQ9bvz+PT9Q/E3D07ehfBJCxsLmF52TCmKo9zT1POIz3yvEr975+CkvS7QfrKIWDm3ENkM6hudxYiLV5TitUcX46wlheiZ4JSQZ3bW49vra3HTmlo89cLEY8elK0tx2THFOOuI4qjTYK57sBKffUjggJkkzxsLuE9HaBjHIF2m0+KeLD51RVdcff1AfFfkAGagUxYV4jNXdsX8rtYX3i8M5vF/H6rEn9039NLUk8ny/efr8bNfHYjVRxbj/ed2xGtajB4pZBHvOasc3aWIX/+myAEzVW9HNiPiRqkQceHRxXjd0aU4+4hCzO448C9qxZxCrJhTiLedXI4nttXjzudqceOaamzcM/pty3HzCnHlcaW44KhiLO6ZAd9QYMKyrHFO3T009YlD4EjAou4s/uKKrnjf9QNxn8gBzCALuhvTUkaLG48+X48P3DQQT24/tFP17nyuFnc+1x/XvLIjrjm3o+V2tP/5tHL84IV6XDeJI0iA9tE7vqV/2tbrji7GhUeX4pVLCzF3kqfZZBFx4oJCnLigEP/51HI8vLUed6yrxteersULg3l0FiOuOK4Ur19RilMWFaKga8Bhr7ccsXto6l9X4Jhk73hFOVbOzeL375rcf82XIsdXBw5ozjlAO/o/l3XFcfNbT0v52tPV+OWbB2PXfur/gu7GmhqnLirEwu4sFnRnMa8zi8FaxLb+PJ7vz2PD7nrcsrYW39kw9vnz2nuHYs2Oevz2hZ1NNwhZRPy38zrj6R31uPUZ52GYSQpZTHj6Rjv5jdd2xoVHH9hWKLuG8vj849VYfWQxjptfiP19F0qFiDOXFOLMJR3x02dEPLatHsfOyw5qpAgw8/SUsyhkedSneBCHwDGJ3vGKcvzW6zqjo9i4EP74JEeOhd1Z/MUbu+J9NwzEPfu5SAdod799YWe89qjmC/I8Ij713aExz6GlQsRPn1GOS48pxRlLitE5juv6q8+OWLerHnevr8ffPjQ06uJ5//FkNZ7ZWY8/uqwrVs4dHl+6ShG/f0lX/MQX+g/5qBJg6nSX0r45P33xge/8Uq031sG47sFKHD+/EG9YVYrXLCvE0ePYKruz1IgdAK30lLLYXZnawuGMNEn2jRsREVef3RG/et6BbwL80JbWF84LXowcr1o2DRuWA0ySt51cjp84tfV48M8+WBkzbrzzlHLc9M6e+NDqznjVsvHFjb2Oml2IHzupFP/yoz3xhy0Cxl4PbK7H+24YiG0tVgBf1J3FJy7tGv+LAm2vJ/HpKZPlye31+LP7huKqLw/EL98yGF9+qhpb+uxHAByY7mk4txrBMQneemJpWNzY6+qzG4HjQEZyfOGJSty9vhA/fWbz/xXzu7L48zd2xc/eMBB3rzeSA0hLqRDx8+eUWw6D/uaztfjNb7VeyHPVvEL8wSWdcfYRBx94y8WIt5zQWN3/j+8Zik/f37yuxvefr8eHbh2MP7m8q+n8fvrixjx0WxvCzNCV+AiOQ+H+TbWXdvG74KhivH5FY32PmbqNbjub15nFv/5Yd9Pvf+Qbg3Hnc+4FaF+Nc6sRHMl5fFs9tg20/oc7mJEcH71jMP7qe60vnud3ZfFnP9QV57VY8R+gnV19dkfLkRNPba/HL9480PLvvO7oYvz9m7snJW7sq7ecxYdWd8bvXdzZcmHRrz1djU/cPdjyrfnqsxs7qwBpKxei5c8/L7t9XS0+esdgvOML/fHxu4bizudqk76rFTDzlAqNc+yUvubUvtzM9PDWerznK/3x6Su7Y2lvc9U+mJEcH72j8SRztJEcf/pDXfELNw6ot0AS5ndl8V9Obz6fDdYifvHm1lNC3npiKT56Udd+Y8KaF+rx2PP12PriwqLdpYhFPYVYPiuLM5cURl1AMIuIH39FOVbMLcRP/Ud/DI44nX76/kqctaQYVxw3/ACOml2I957dEX/0nWlYIhyYNEZvjN9QLeLGNdW4cU01ZndkcdkxxXjjsaU4fpTFotvd8llZfPZHmkdG/Ol9Q/Fv31dw2sl7zyrHO17Rer7Dmh31ePdXWj8gGc05RxTjf13SOeqfv+tL/bF+t+lZk6GrlEVlCreLFTgmyXRHjp+/QeQA2t8153bEou7mc+TnH6+0XHvo1cuL8T8v7Bw1buyp5PGvj1Xj3x6vjLpoaETE7I4s3nR8KX7ilHKcNspifOctL8bHX98V//VrzRdJn7h7KC5aUWyKJD95Wjn+4eFKbDZHHZI1cgoa47NrKI9/f7waszqyZAMHM8MxcwtxyqJCPLJ1/It/X3qMH/yp0lmM2DWFr+dsNIn2Ro6NeyZ/usrNa6vRN8oKtPM6s7igxU4EAO1kflcWbz+5uVTsHMzj2nua4+9Rs7P435d2RW+LkRd5RHzpyWq86Z/74ze/NThm3IhoXIj/4yOVePPn+uLDtw3GplHO028+oRTXvLL5PP2DF+rxry2e5s3vyuLdZx34gtLA9JvIQsVA+8ki4rJjJvbc3oYNU2eqI7LAMckOReR41bJi/MnlXaMOr/7M9yrxB982RBpob287udQyVvzDI5WWw0A/elFXLJ/V/PFDtYjfvWMwPnDTQDyzc+Jbtf7jI5X4iS/2x8OjPOm55tyOlhc+194zFNtbrLf0Bk+BIGkdRVNUIHWvmcC6hBetKMbCFqNJOTSm+hwrcBwCkxk5zj6iGJ/8oa6Y3zV63PjYHa13HABoJ288tvXojU/e17yY8qXHlOJ1RzdfrFTrEb9yA88ieQAAIABJREFUy0D85SgLMI/Xmhfq8c7P98d9m5qn9pUKER84t/kcvbU/bzkne+XcQly8QuSAFJUKEZn7HEje0t4sXj3OURkXHW2VhqmUZVO7kLPAcYhMRuQ4fXEh/vyNXaMWRnEDSMWi7ixOX9x84fGdDbXY1WLhqWte2dFyG9k/vmcovvTk5Cz8tqeSx/tvHIjndjW//uqjinH5quYLoC8/1fq1L2vxsUD7m+rV/YFD5/Ur9x84OosR5yz1gz/VpvJc64rsEBrvwqOtLO7J4i+u6I7FPeIGkL5Ljym1rPffeLZ5BMUPHVuKM5Y0f/C31tXiT+6d3Ol463fn8ZFvDMRfval7WFDJIuLdZ5bjxjXDg8b9m2qxdke9aZvbM5cYwQEpKhUM32D/jptXiE9d0TXs957ZWY+f+vJAlAoRP35yOVYfWYyjZmfR25HFQDWPdbvyuH1dLf7lsUoM7WcfgEXdWbzt5FKcu6wYS3qy6ChmsXMwj0e21uPfH6/E2h0HtpD1WUcU45KVxThtUSEWdGfRU24c287BiO9vq8ft66pxy9qJbVJw2TGluOCoYpwwvxBzOhs7ZOwZymPbQB4PbanH156uxoMtFg3f69KVpfjw+cPvge7bVItfuWUwXr2sGO88pRzHz8+it5zF0zvq8TMT2B3lVcuKUSo0RnuO+vrHlGJ2x8H93HcUI644thSvWV6MVfMKMacji3IxYs9QHtsH8nhoaz2+vrYW320xSnSvm97ZE/uefjb35fH/faE/TlxQiB87qRRnLinGvM4s6nnE9oE8HtxSiy8+UY1Hn5/41Nx20DjXTs2C7ALHITaeyNHqh/Cnz+gYdSiPuAGkptWaFoO11iMi3tBiobBqPeIP7x47bpy0sBAfOLcjzj6iMbd2sJbHmhfy+MITlfjMGFNabnumFreurcbrVw5/3TOWNC40R+6QcudztabAcdKCxsVjq21ugfZV9CCXA9RTzuLEBYX4tdUdsWLO8P+RestZnLQgi5MWFOK85cX4798YjJ2Drd8fXnd0Md5/bkcsGDEdfWF3Fq87uhjnHVmMf3xkYtMy53dl8f5zO+K1RxVjZMPrLWfRW45YNqsYF68oxltPrMcn7xva743zKYsK8QvndMRJC5t/aOZ0ZjGnM4tj5hbiiuNK8c1na3HtPUPxwihf80i9pSyuOK4UHzi3Y9iT/tp+/vpDW+rDdkab35XFhUcXx4w2rx2xMcPW/jzqecSSUR4qj3TpylK8+6xyy4/f+31YObcQVxxbiq+vrcYf3VOJPaNsFLGv2R1Z/PDxpXjf2R1NO8ctm5XFslmluGhFKf7u4Ur83cMHN013OkzludZpfQrsb7pKq5AhbgAzyap5zRcCD26utQwCrRYK+/ra6phPQt5zVjn++Ue7443HluKI3ixKhcZF3GmLC/Hfz++Mv3tzdxw7b/S3vGvvrTQ9V+goRlx5XHNsaXXhVCpEnDHK9rNA+7K+KAdqUXcWH7uosylujHTKokK8v8XuXBER5y4txq+e19kUN/ZVLkS867TyuI9r+aws/uCSzrjw6Oa4Mdrx/c5FnWPuKvKa5cX4nYs6W8aNkYpZxMUrivG/Luls+XC3lUU9Wfzs2eWmaQy1/QxWeHZnPZ4fcR1x4Rjra8zpzJpGXN71XC06xvn2/baTS/GrqzvGFUMKWWO0yP+4YHzrLnaXGut/jYwb++osRvzUGeV420npjVGYynOtq7Epsr/IMR7iBpCq5bOa327W7mw+H567rBhHzm5+F/za06PHjbefXI4Pre4cc8jp6iOL8Udv6Bo1Ht+/qRY/2N58JdVqodP7RwktJy7wlgqpMUOFgzFWmNjXa49uTF/ZV6kQ8XPnlMe8oT0Qv/Kazjhm7sTej+Z0ZvErr+loGSSW9jb+bKLTOo6dV4hfGeemCgu7s5a7rNX3c9vUUYq4e/3w9+RzlhaiZ5QedPkxxega8f2+6enquLYxPWVRIX7mjI6mG/U8IjbtyeO5XXnLESevWlYcd6Aaz/koi4ifPL3c8lqpnU3luTa9/JOw/U1XGYu4AaSqt5y1XE9oa19zUHhFi6dDeyp5fGWUxT2Pmp3Ffzuv9YKkI526qBC//OqO+Phdrae63LW+FsfNH/76R7V4Mre1P489lbzpYuzo/TzFA9qPwMHB+saztbj1mWo835/H8lmF+JHjS3HKouHvB+VCxAVHleKfHn15asEPH19qmu4YEbFhdx7/9nglnthWj4XdWVx6TCnOP3J86zz92Emt17B6cns9vvBENdbsqMeSniwuX1WK80aMllzYncV7z+qI/3n78PuN95zV0XI3x9vX1eKmpxtf97HzCvGWE0pNIyXPWlKM/3RSKf61xQ5kY6nUGz+b+5ui0lXM4stPVuKKfUZb9pazuHRlqeWC5OcfNfzWd80L9XhoS31c25i+9cRyUwjZMZjH79wxFPdsbESW4+cX4tcv6GyKD284phSffWh800ruXl+Lm9fWYuOeehw5qxBvObEUJy1ongL1jleU43/vZ+puOxE4ZrADiRziBpCyJb1Zyze2LS2mp7QKIet356POX/3/TytPaC/7d5xSjk/cPdRy7aPHtzX/5mhbdG8faA4cB7toGTD1/NRyML7wRDX++J6XbzIf2lKPu9bX4q+v7Ip5I94/jps//L9bjRDcPpDHB28ZGDbi+9ZnavHBV3cMu4kfzZUttmN/Yns9PnDTQAy+ONDh0WisPfVrqzvishFrXu1dKHXdi7uLLZ+VxeoWceXLT1WH3Vw/srUet6ytxrVv6GoaPfKm48YXOAZrEZ9/vBI3rGks5h3RGFkylo5ixPc215sW/37t0cWmwLG0N2sKT3c8V4vO4vi2MD1+fvOxfPUH1ZfiRkQjJH32oUp8aPXwkSvLZ2extDfb70j+R7bW49due/me76Et9fj6M9X408u7muLRyEDV7qbyXOtx0zSYyHQVcQNI3bxRLlA27W4+By5qESvGWrhzoruXzOvMRp1nvLHF8Yx27NtbLOo+2pBYoH1lCgcH4d8fb75x3zmYx/dbBPPZI6L4ifObb8Ouf6ra8v7gugf3//T/uHmFWNViral/eaz6UtzY16fvr0TfiIcHHcWIC1e8HD0uXFGKzhFvmYO1iL9pcTx9lWg5SmHl3ELTCIRW/uqBofjU/ZWX4kZEjLow615dpcb39K4R01ROX1xsevjxhlWlYWt8VOsRN6ypjvogY6Rr76nER74xOOzXF59o/ve/f3PzNzuL1lN1R/rX7zd//4ZqEf/0aPPrLOzOkpoaO5XnWiM4psnDW+vxW98cjD97Y9eoH3PPhpq4ASRv11DecgX4R1qs2P7QlnrTx461svv+nu60smiUxcEe29b82hERczuz2DHiIuuLT1Ti4S3DLyyefCHNrdsAODC1URaJ2D3U/Pvd+wSOVywsRE+LNSe+ta71Gk9jbXu617kt4v0LA3nc/HTr0RNb+/N47Pl6nLN0+N/bd6poq2mjD2yuNS3sudetz9TiA+fmTe/N5ywttow++/rcYxObxhIRLy0Oev0PavG2k8svrY/RWWwEjX3f00eORHlkaz2e25XH8S1CUyv3jbHQ+b5GG3HaOY677j2jdKxvPFuNX3pVR9PneMXCQsvRp4c7gWOanLqoEL/x2s4xP+bcZcX48Pmd8TsiB5CwJ7fX48O3je889vcT3ApvS18er1g4sePZ9+nQvp7dOf7jHGvbWSAduZ2dOQRavcvse8u/pMU09XoesWaU96fxaLWzx8htzkfa1GK0yL4jH1qNqtzfCPSt/c2BY7xbsE5Ux4t3ss/urMejW4dvGXv+PtvrrppXiBNGhIxvrmsEld4DGH15zhHFuGhFMY6dV4ils7LoKWXRUTx060wM1SJ2DOWxpDT8BcY7+qQdTOW5VuCYBqcuKsSnr+iOpbP2/z/lu89s/NSJHADNnthWjwtbzGMeza6hPB7Z6mkH0KBvMB1mtRi9saeSx9D4Bgm0/pwtNizZ2WIkyb6eH2j+833Xl2o19fKFFn9nX9tb/Pn+1qg60K+7c5/FQb+1rhqnLX75m3DywsJL64m84ZjhW+b2VfK4aU3jRVvt3jKaVXML8QvnluOsCU6PnQw7B/OmUNRqFFC7mspzbToTd2aIicSNvd59Zjk+fP7Yoz0ADkd/+1Al+icwqvVLT1bHNdQXODzsbxtKOBQOxXoEB/Ip9/dUfapun6sH+IO47/ogN6ypDbseKGYRl69qPMsfuSDnfZvqsevF+NNdGt9XuWpeIT7++s5R40Y9b4SaQ3WNkfp6QVN5rjWCYwqdcgBxY693n1mOPI/43TuN5ADY69md9fj0/UPx/nNbPLoa4Zmd9fjkvelsqQYcegIH06HVGh0H+zR+V4u3t5ELm460oMUUlH3XkGi1JsT+1r6a2+LPd+1nJMmB2nfb1p2DeXx3U23YlrrnHVmMuzfUmrbj/fral0tI9zinqPzcOc27tvVV8vi3x6txx7paPL2jHoO1xqiXL72tZ+JfzH6MNuonFVN5rjWCY4ocTNzY6z1nlePXVhvJAbCv//OdofirBypjPjVZu6MeP3/DQKxvsVMKcPiqOSUwDVqtfVHM4qB2xWi13sZoi2rvtbTFWiD77lzWajHRI/bzOVu9Zqtt4SdDx4hFL259Zvhcl2PnFeLHTx5eMJ7vz4d9XNc4ZpscOTtruWvbtfdW4q8fqMT3t9Vb7lQzWXrKrXd1G22x13Y0ledagWMK7I0by0aJG60uyke7UBc5AJp99PbBuOrL/S2fEn3xiWpc+c998bC1N4ARak4LTINHn683bdEaEXHxitZ326Vx3LHdu7H5DnthdxavG2WdqkXdWZy2uPnP9t257LEWu5ideURx1FEclx1Tankj/t0WxzYZRk7buO2Z6rA1QLKIuOCo4V/jyC1lxzP14+QFxSiO+LjBWsQtaye+88tYRlvw9JKVpZa7sDy4JZ0T2FSeawWOQ2x/ceMz36vElhbF9boHK6OufPyes8rxodX7H44NcDi5Y10tdrcYovvgltqE1ukADh8HOvcfDlarbVNfv7LUcmeMnzx9//Montxeb7lL2NtPLrcMJD9xannYGhYREZV6xDeffTkA3PZsNSojPmV3KeJdpzYfT6kQ8WMnNt+FP7uzPuZ275OpWo/49vqxY8pNayZ+QdDVIi5k0Xpa0QVHHvgKEO88pfX39cpjmz/n+t35qLvCtaOpPNcKHIfQeOLGx0bZHWXTnnq876sDsXWUoUfvPatD5AAAOAgjb95gqtz2TPON+JKeLD5xSWf88PGlOH1xIS5ZWYzfvrAz3nTc+G6av/JU8837qYsK8YeXdsUbjinFiQsKsfrIYvz6BZ3x5hOaP+edz9XimZ0v/1A8tyuPO59rPs63nlSKj1zQGauPLMaJCwpx+apS/PFlXXHSwuZbyy+3OKZD6aanRw8cT++oH9Coh2d3Nf+djmLEr1/Q8dLOJou6s/iZM8rxi68+8PuzE+YX4vcu7oyLVzS+rxceXYw/uKT19/WuFv8u7Wwqz7UWGT1EDiZu7HX/plr83A0D8Rdv7GpZc997VkfkecTH77JoHgDARFXrjZ0kUt+hgPR86clqvOXEUqwasQDmyrmF+MVXHdhN8ue+X43XHV2K0xYP/5ynLCrEKYvG/pzbB/L49P3N9xR/8d2hOH3x8HuRLCJev6IYrx9lSs1eD22px788NrWB4/5NjUizYk5zFLjjAKPAA5vr8ezOehw94nOefUQx/u+bu2Ogmkd3KYvCGOeRkaNlRvOqZcV41bKxP3jHYB7/9GiLFWDbVJ4fut1lWjGC4xCYjLix1z0bavHzNwzEC4OtR3JcfXZH/Op5RnIAAByIISuNMk3+7L7xbXU+kdH9v//twWGjMMZj91Aen7h7qOVC3Bv3NP6s1c4vY3lmZz1+/9vTs/tjq1EntTzihh8ceGz57EOtt5kvZhG95bHjRkTEvBYPqw9ELW/cS442yr8dTfU5VuCYZK9YOHlxY6+71tfi/TcOtFyMKKIROX7pIIZDAQAcrg7l7gcwlns31uL37hwctjDmSJV6Y22+720eX7R4blceH7xlMO54rjauMPLk9np85BuDLaPAXnc+V4uPfGMwnty+/2PIozFS4oO3DMZzu6bnJvyrP6g17drxyNZ6rDuI47l5bTX+9L6hMbdmzSPiP56sxvdbrDly7Lz933Z//vHqmMGrv9oYUTPV034O1tAUn2NNUZlEr1hYiL+8cnLjxl4XHFUcdX/sHYN5fGeDd2cAgIma6otv2Ne31tXi+9sG4sdPLscrlxZicU8W5WIWOwfzePT5enz+8Wp8d1MtVo3jBnmv5/vz+B/fGIxXLi3GJSuLccqiQszvyqKnnMVgNY+dQxFPba/Hnetrcf04b5Yf3FKPq786EFccW4rXLC/GCQsKMacjorOURV8lj+0DeTy6tR63rK3FPYdo15TxemZnPR57vh6nLnr5e/atZw8+CnzxiWp8d1M9fvSEUpyztBCLurPoLGWxayiPJ7fX44tPVOP2dbV439kdTetmnNVim9mR7lpfixvXVOM/nVSK05cUY15nFnkesW0gj+9trsW/P14dV2RqN1MdkbNVn5ymtDbDHEzcuP1dvU1/72N3DMZnvteYW/Wr53XE1We3HqGxYzCPa24ciG+t8+4MsL/zKcBI5ULEUS3m66fkc2/tbrle23hU6hHXP1WNm9dW46EDWIDxXaeV46px7PIxmuserMRnH3KO5vBy0zt7mqa1fOjWwRn50HrdzrpFRlNzKEdujBU3XhjM4+dvGBhzSBkAAKOr1BsL4LXaSvNwUC5EvPmEUrz5hFKs3VGPu9bX4qY1tViT0BaUQHuq1qd+tyqBYxKcurgYi3vEDYDp9OYTSrGwu/lcfOkxpfj7h8e3kBtweBqo5jGrw1YqK+cWYuXcQrz95HI8vq0edzxXi5vWVGNznwHfwMQNVKf+3CFwTILPPVaJjkLEb76uc1j9P5i48SPHl+OMJa0fJWwfyOMXbhQ3APZ68wml+L2Lu6KjxRTX85YX49NXdsd7vtIvcgAt9VUiZlmv/SWFLOLkhYU4eWEh3nVaOR7eUotvravF156uxa4J7qYBHL76p2H22WE6GG/y/f0jlfjNbw6+tH3QwcSNiBgzbhi5AfCyt7wYN7rGSPbnH9mIHN2yPtBC/zQ8ZUxFuRBx1hHF+IVXdsQ/vKU7fvvCzrh8VallUAbYV58RHGn7+0caiWrF3Cx+786hSf/82wfy+NkbBuLu9eIGQEQjbvzufuLGXucfWYy/vLI73m0kBzBCPY/oq+Sj7lg3U+XR2E2jp5zF8lHWkttXd6lxLj3/yGK87+xy3LuxHnl+4DcwA9WIBza7roWZqK+Sj2ur4skmcEyyvZFjsm3rb8SNmbiyLsCBmEjc2Gv1i5HjvdcPjLmXPXD42VOJ6DnwzUCSsmMwjzufq8X1P3h555RzX9xS9NxlxZbrGY00tzOLS1ZOfBhHPY/4wQv1+PaLW2Kus6EjzEh7pmlzJIEjAc+/GDfuETcAIiLiR09sxI3OFtfWg7WI3/jmYLztpFKcu6z5A1YfWYxPXdElcgDD7BnKY1F3FtkMHcRRyyMe2lKPr6+txg1rqjE04rLyno21uGdj4zcvWlGMi44uxTlLCzF7EhZfzSNizQv1+M6GWtz0dC3WvGCHFpjJ8rxxTp0O2apPyqbT7fZ39Y66xezW/jx+9qsDce9GcQMgYv9x48O3DsS/P16N2R1ZfObKrpaRIyLizudqIgcwzMLuLOZ0plc4PvfW7pjf1fq4N+7J4/Z1tfiPJ6vxzM6JhYXOYmMnqtcdVYwzlxSjc4KPRp/ZWY+7N9Tj5qer8fg2UQMOF7sG89jaL3ActkYLHFv787j6+oH47iZxAyBi/HFjr/1FjrvW1+I9XxE5gIbOYsTy2emtwf/PP9o9bFrJYC3i3o21+NrT1bjtmcm5jpzXmcVlq4pxwZGlOGVRYdjOgft6blce39lQi5vXVuORraIGHI7W76rH4DTdwgocbaBV4NjSl8f7vipuAOw10bixl8gBTMTS3iy6E1ts9IOv6Yg3HluKp1+ox23P1uL6p6qH9Onp0t4sLl9VivOOLMYJ8wuxuS+PezbU4pa11fjeZlEDDmf9lTw27pm+ayprcLShzS/GjfvFDYCXnLqoOOG4ERGxayiPn/nKwKiRY+WcQiyblcWT2wUOIGLnUER3YouN/sG3h+K6BypTNiR84548/vahSvztQ5VY1J1N21B0oP3snPzNRCckvTF4M9ymPXm89/p+cQNghI/dMRh/8+DwJbn3Fzf22hs5Ri7WvGF3Hu/+Sn88ud0TR6Chr5LHYDW9G/bpigziBrDXYDWPvmkeEStwtIFHttbie5trcc+GWrz3+v54wNA+gJZ+61svR47xxo29RkaOjbvzeM/1/fHo8865wHA7Bqf7CADS0w7nTmtwAJCc/35+ZzyytTbuuLGv2R1Z/M7FnfHn9w3FwxbAA0axbFYWXaW01uIAmC4D1Tw27J7+tCBwAADACN2liKWzDHYGGI+Nu+vRP/HnTpPOWRsAAEbor0bsHvIcEGB/dg/lbRE3IgQOAABoadtAHrnGATCqPI/YPtA+J0qBAwAAWqjVI7bZJQRgVNsG8qi20ZJmAgcAAIxi59D0b3sI0I76KnnsHGyv86PAAQAAY3i+P496e13DA0yret44N7YbgQMAAMZQrUds7Wu/C3mA6fJ8X3tNTdlL4AAAgP3YU8ljRxstpAcwXXYM5LG7TafuCRwAADAO2wasxwEc3voqeWxr49grcAAAwDht6ctjqNa+F/cAh8pQLY8tbT5dT+AAAIBxqucRm/fkUWvDuecAh0qt3jj3tfuCywIHAABMQKUesamvHnmbX+gDTIY8j9jcV49KAmFX4AAAgAkarEZs2iNyADNbnjfOdQPV6T6S8RE4AADgAPSLHMAMtjdu9CcSNyIEDgAAOGD91YgNe+rW5ABmlFo9YmNicSNC4AAAgIMyWI3YsLtudxVgRhiq5bFhdzrTUvYlcAAAwEGq1CM27M6jryJyAOnqq+SxYXeexIKirQgcAAAwCep5xKY9eewYEDmA9OwYyGNTAlvBjqU03QcAAAAzybaBPAZrEYt6sihk0300AGOr5xHP9+WxewaMQBM4AABgku2p5DG4K4+F3Vn0lFUOoD31VfJ4vj+PaqJTUkYSOAAA4BCo1htTVuZ0RCzoziLTOYA2keeN0WY7B9MftbEvgQMAAA6hnUN57KnmsaAri1kdKgcwvXYP5bF9YOaM2tiXwAEAAIdYrR6xpS+P3UN5zOvKoqskdABTa6CaxwsDefQnuP3reAkcAAAwRfqrEf278+gtR8ztjOgUOoBDbLCax47BxtpAM53AAQAAU2xPJY89lYiecsScjohuC5ECk6y/ksfOocZCoocLgQMAAKZJXyWPvkpEZzGP2R2NNTosRgocqDxvrLGxa6ixXfXhRuAAAIBpNliLGOxvbNfY25FFbzlsLwuMW9+Lo8L2DOVx+IzXaCZwAABAm8ij8fR191BEIcujp5RFdzmiq5RFqTDdRwe0i2q9sWhofyWir5pH/XCuGvsQOAAAoA3V84jdlTx2VyIi8igXGqGjsxjRUYzoKJrOAoeDPI8YquUxVGuM9hqo5lGZgVu8TgaBAwAAElCpR1SG8tj10u/kUSpElAsRpUIWxUJEMYsovPgrixBAIAF53hi9Vc8bv2p5Y2vpar0RMqpixrgJHAAAkKjqSzc/xqcDmMkHAAAAJE/gAAAAAJIncAAAAADJEzgAAACA5AkcAAAAQPIEDgAAACB5AgcAAACQPIEDAAAASJ7AAQAAACRP4AAAAACSJ3AAAAAAyRM4AAAAgOQJHAAAAEDyBA4AAAAgeQIHAAAAkDyBAwAAAEiewAEAAAAkT+AAAAAAkidwAAAAAMkTOAAAAIDkCRwAAABA8gQOAAAAIHkCBwAAAJA8gQMAAABInsABAAAAJC+LiHy6DwIAAADgYBjBAQAAACRP4AAAAACSJ3AAAAAAyRM4AAAAgOQJHAAAAEDyBA4AAAAgeQIHAAAAkDyBAwAAAEiewAEAAAAkT+AAAAAAkidwAAAAAMkTOAAAAIDkCRwAAABA8gQOAAAAIHkCBwAAAJA8gQMAAABInsABAAAAJE/gAAAAAJIncAAAAADJEzgAAACA5AkcAAAAQPIEDgAAACB5AgcAAACQPIEDAAAASJ7AAQAAACSvNN0HAECaenp64qqrrorVq1fH7Nmzp/twgMTt2rUr7rzzzrjuuuuir69vug8HgARlEZFP90EAkJaLLroorr322li2bNl0Hwoww2zYsCGuueaauO2226b7UABIjMABwISsXLkybr311pg1a9Z0HwowQ+3evTsuvvjiWLt27XQfCgAJsQYHABNyzTXXiBvAITVr1qy45pprpvswAEiMwAHAhFx++eXTfQjAYcC5BoCJMkUFgAnZsmXLdB8CcJhYvHjxdB8CAAkxggOACdmwYcN0HwJwGHCuAWCiBA4AJuTGG2+c7kMADgPONQBMlCkqAEyIXVSAQ80uKgAcCCM4AJiQtWvXxlVXXWX4OHBIbNiwIa666ipxA4AJM4IDgAPS09MTV111VaxevTpmz5493YcDJG7Xrl1x5513xnXXXRd9fX3TfTgAJEjgAAAAAJJnigoAAACQPIEDAAAASJ7AAQAAACRP4AAAAACSJ3AAAAAAyRM4AAAAgOQJHAAAAEDyBA4AAAAgeQIHAAAAkDyBAwAAAEiewAEAAAAkT+AAAAAAkidwAAAAAMkTOAAAAIDkCRwAAPy/duyABAAAAEDQ/9ftCHSGALAnOAAAAIA9wQEAAADsCQ4AAABgT3AAAAAAe4IDAAAA2BMcAAAAwJ7gAAAAAPYEBwAAALAnOAAAAIA9wQEAAADsBVLmeJHBAAAAA0lEQVQEDP9/dEb/AAAAAElFTkSuQmCC;" vertex="1" parent="1">
          <mxGeometry x="250" y="-600" width="256.5" height="570" as="geometry" />
        </mxCell>
        <mxCell id="qfeyh0uUsn0Jp_XaAwNh-2" value="" style="endArrow=none;html=1;rounded=0;" edge="1" parent="1">
          <mxGeometry width="50" height="50" relative="1" as="geometry">
            <mxPoint x="514" y="-555" as="sourcePoint" />
            <mxPoint x="514" y="-595" as="targetPoint" />
            <Array as="points">
              <mxPoint x="524" y="-555" />
              <mxPoint x="524" y="-595" />
            </Array>
          </mxGeometry>
        </mxCell>
        <mxCell id="qfeyh0uUsn0Jp_XaAwNh-4" value="AppBar" style="text;html=1;align=center;verticalAlign=middle;whiteSpace=wrap;rounded=0;" vertex="1" parent="1">
          <mxGeometry x="524" y="-590" width="60" height="30" as="geometry" />
        </mxCell>
        <mxCell id="qfeyh0uUsn0Jp_XaAwNh-5" value="" style="endArrow=none;html=1;rounded=0;" edge="1" parent="1">
          <mxGeometry width="50" height="50" relative="1" as="geometry">
            <mxPoint x="514" y="-90" as="sourcePoint" />
            <mxPoint x="514" y="-550" as="targetPoint" />
            <Array as="points">
              <mxPoint x="524" y="-90" />
              <mxPoint x="524" y="-550" />
            </Array>
          </mxGeometry>
        </mxCell>
        <mxCell id="qfeyh0uUsn0Jp_XaAwNh-6" value="Body" style="text;html=1;align=center;verticalAlign=middle;whiteSpace=wrap;rounded=0;" vertex="1" parent="1">
          <mxGeometry x="524" y="-330" width="60" height="30" as="geometry" />
        </mxCell>
        <mxCell id="qfeyh0uUsn0Jp_XaAwNh-7" value="" style="endArrow=none;html=1;rounded=0;" edge="1" parent="1">
          <mxGeometry width="50" height="50" relative="1" as="geometry">
            <mxPoint x="514" y="-50" as="sourcePoint" />
            <mxPoint x="514" y="-80" as="targetPoint" />
            <Array as="points">
              <mxPoint x="524" y="-50" />
              <mxPoint x="524" y="-80" />
            </Array>
          </mxGeometry>
        </mxCell>
        <mxCell id="qfeyh0uUsn0Jp_XaAwNh-8" value="BottomNavigationBar" style="text;html=1;align=center;verticalAlign=middle;whiteSpace=wrap;rounded=0;" vertex="1" parent="1">
          <mxGeometry x="524" y="-80" width="130" height="30" as="geometry" />
        </mxCell>
        <mxCell id="qfeyh0uUsn0Jp_XaAwNh-9" value="PageView가 적용된 Body 위젯: 스크롤하면 페이지가 넘어가고 있음." style="text;html=1;align=center;verticalAlign=middle;whiteSpace=wrap;rounded=0;" vertex="1" parent="1">
          <mxGeometry x="50" y="-540" width="200" height="130" as="geometry" />
        </mxCell>
        <mxCell id="qfeyh0uUsn0Jp_XaAwNh-10" value="" style="endArrow=classic;html=1;rounded=0;exitX=0.5;exitY=1;exitDx=0;exitDy=0;" edge="1" parent="1">
          <mxGeometry width="50" height="50" relative="1" as="geometry">
            <mxPoint x="144" y="-450" as="sourcePoint" />
            <mxPoint x="234" y="-400" as="targetPoint" />
            <Array as="points">
              <mxPoint x="144" y="-400" />
            </Array>
          </mxGeometry>
        </mxCell>
        <mxCell id="qfeyh0uUsn0Jp_XaAwNh-11" value="" style="endArrow=none;html=1;rounded=0;" edge="1" parent="1">
          <mxGeometry width="50" height="50" relative="1" as="geometry">
            <mxPoint x="640" y="-50" as="sourcePoint" />
            <mxPoint x="640" y="-600" as="targetPoint" />
            <Array as="points">
              <mxPoint x="665" y="-50" />
              <mxPoint x="660" y="-600" />
            </Array>
          </mxGeometry>
        </mxCell>
        <mxCell id="qfeyh0uUsn0Jp_XaAwNh-12" value="&lt;div style=&quot;text-align: center; font-size: 16px;&quot;&gt;Scaffold&lt;/div&gt;" style="text;whiteSpace=wrap;html=1;fontSize=16;" vertex="1" parent="1">
          <mxGeometry x="670" y="-330" width="60" height="40" as="geometry" />
        </mxCell>
      </root>
    </mxGraphModel>
  </diagram>
</mxfile>
